<svg viewBox="0 0 330 200" xmlns="http://www.w3.org/2000/svg"><g><g><g><g><g><line x1="41.171875" y1="177" x2="36.171875" y2="177" style="visibility: inherit;" fill="rgb(0, 0, 0)" stroke="rgb(204, 204, 204)" stroke-width="1px"></line><line x1="41.171875" y1="154.875" x2="36.171875" y2="154.875" style="visibility: inherit;" fill="rgb(0, 0, 0)" stroke="rgb(204, 204, 204)" stroke-width="1px"></line><line x1="41.171875" y1="132.75" x2="36.171875" y2="132.75" style="visibility: inherit;" fill="rgb(0, 0, 0)" stroke="rgb(204, 204, 204)" stroke-width="1px"></line><line x1="41.171875" y1="110.625" x2="36.171875" y2="110.625" style="visibility: inherit;" fill="rgb(0, 0, 0)" stroke="rgb(204, 204, 204)" stroke-width="1px"></line><line x1="41.171875" y1="88.5" x2="36.171875" y2="88.5" style="visibility: inherit;" fill="rgb(0, 0, 0)" stroke="rgb(204, 204, 204)" stroke-width="1px"></line><line x1="41.171875" y1="66.375" x2="36.171875" y2="66.375" style="visibility: inherit;" fill="rgb(0, 0, 0)" stroke="rgb(204, 204, 204)" stroke-width="1px"></line><line x1="41.171875" y1="44.25000000000002" x2="36.171875" y2="44.25000000000002" style="visibility: inherit;" fill="rgb(0, 0, 0)" stroke="rgb(204, 204, 204)" stroke-width="1px"></line><line x1="41.171875" y1="22.12500000000002" x2="36.171875" y2="22.12500000000002" style="visibility: inherit;" fill="rgb(0, 0, 0)" stroke="rgb(204, 204, 204)" stroke-width="1px"></line><line x1="41.171875" y1="0" x2="36.171875" y2="0" style="visibility: inherit;" fill="rgb(0, 0, 0)" stroke="rgb(204, 204, 204)" stroke-width="1px"></line></g><g transform="translate(31.171875, 0)"><text x="0" y="177" dx="0em" dy="0.3em" style="text-anchor: end; visibility: hidden; font-family: Roboto, sans-serif; font-size: 12px; font-weight: 200;" fill="rgb(33, 33, 33)" stroke="none" stroke-width="1px">0</text><text x="0" y="154.875" dx="0em" dy="0.3em" style="text-anchor: end; visibility: inherit; font-family: Roboto, sans-serif; font-size: 12px; font-weight: 200;" fill="rgb(33, 33, 33)" stroke="none" stroke-width="1px">0.2</text><text x="0" y="132.75" dx="0em" dy="0.3em" style="text-anchor: end; visibility: hidden; font-family: Roboto, sans-serif; font-size: 12px; font-weight: 200;" fill="rgb(33, 33, 33)" stroke="none" stroke-width="1px">0.4</text><text x="0" y="110.625" dx="0em" dy="0.3em" style="text-anchor: end; visibility: inherit; font-family: Roboto, sans-serif; font-size: 12px; font-weight: 200;" fill="rgb(33, 33, 33)" stroke="none" stroke-width="1px">0.6</text><text x="0" y="88.5" dx="0em" dy="0.3em" style="text-anchor: end; visibility: hidden; font-family: Roboto, sans-serif; font-size: 12px; font-weight: 200;" fill="rgb(33, 33, 33)" stroke="none" stroke-width="1px">0.8</text><text x="0" y="66.375" dx="0em" dy="0.3em" style="text-anchor: end; visibility: inherit; font-family: Roboto, sans-serif; font-size: 12px; font-weight: 200;" fill="rgb(33, 33, 33)" stroke="none" stroke-width="1px">1</text><text x="0" y="44.25000000000002" dx="0em" dy="0.3em" style="text-anchor: end; visibility: hidden; font-family: Roboto, sans-serif; font-size: 12px; font-weight: 200;" fill="rgb(33, 33, 33)" stroke="none" stroke-width="1px">1.2</text><text x="0" y="22.12500000000002" dx="0em" dy="0.3em" style="text-anchor: end; visibility: inherit; font-family: Roboto, sans-serif; font-size: 12px; font-weight: 200;" fill="rgb(33, 33, 33)" stroke="none" stroke-width="1px">1.4</text><text x="0" y="0" dx="0em" dy="0.3em" style="text-anchor: end; visibility: hidden; font-family: Roboto, sans-serif; font-size: 12px; font-weight: 200;" fill="rgb(33, 33, 33)" stroke="none" stroke-width="1px">1.6</text></g><line x1="41.171875" y1="0" x2="41.171875" y2="177" fill="rgb(0, 0, 0)" stroke="rgb(204, 204, 204)" stroke-width="1px"></line></g></g><g transform="translate(41, 0)" clip-path="url(#clip_0)"><clipPath id="clip_0"><rect width="288" height="177"></rect></clipPath><g><g><g><line x1="0" y1="0" x2="0" y2="177" fill="rgb(0, 0, 0)" stroke="rgb(66, 66, 66)" stroke-width="1px" opacity="0.25"></line><line x1="24.069010416666664" y1="0" x2="24.069010416666664" y2="177" fill="rgb(0, 0, 0)" stroke="rgb(66, 66, 66)" stroke-width="1px" opacity="0.25"></line><line x1="48.13802083333333" y1="0" x2="48.13802083333333" y2="177" fill="rgb(0, 0, 0)" stroke="rgb(66, 66, 66)" stroke-width="1px" opacity="0.25"></line><line x1="72.20703125" y1="0" x2="72.20703125" y2="177" fill="rgb(0, 0, 0)" stroke="rgb(66, 66, 66)" stroke-width="1px" opacity="0.25"></line><line x1="96.27604166666666" y1="0" x2="96.27604166666666" y2="177" fill="rgb(0, 0, 0)" stroke="rgb(66, 66, 66)" stroke-width="1px" opacity="0.25"></line><line x1="120.34505208333334" y1="0" x2="120.34505208333334" y2="177" fill="rgb(0, 0, 0)" stroke="rgb(66, 66, 66)" stroke-width="1px" opacity="0.25"></line><line x1="144.4140625" y1="0" x2="144.4140625" y2="177" fill="rgb(0, 0, 0)" stroke="rgb(66, 66, 66)" stroke-width="1px" opacity="0.25"></line><line x1="168.48307291666669" y1="0" x2="168.48307291666669" y2="177" fill="rgb(0, 0, 0)" stroke="rgb(66, 66, 66)" stroke-width="1px" opacity="0.25"></line><line x1="192.55208333333331" y1="0" x2="192.55208333333331" y2="177" fill="rgb(0, 0, 0)" stroke="rgb(66, 66, 66)" stroke-width="1px" opacity="0.25"></line><line x1="216.62109375" y1="0" x2="216.62109375" y2="177" fill="rgb(0, 0, 0)" stroke="rgb(66, 66, 66)" stroke-width="1px" opacity="0.25"></line><line x1="240.69010416666669" y1="0" x2="240.69010416666669" y2="177" fill="rgb(0, 0, 0)" stroke="rgb(66, 66, 66)" stroke-width="1px" opacity="0.25"></line><line x1="264.7591145833333" y1="0" x2="264.7591145833333" y2="177" fill="rgb(0, 0, 0)" stroke="rgb(66, 66, 66)" stroke-width="1px" opacity="0.25"></line><line x1="288.828125" y1="0" x2="288.828125" y2="177" fill="rgb(0, 0, 0)" stroke="rgb(66, 66, 66)" stroke-width="1px" opacity="0.25"></line></g><g><line x1="0" y1="177" x2="288.828125" y2="177" fill="rgb(0, 0, 0)" stroke="rgb(66, 66, 66)" stroke-width="1px" opacity="0.25"></line><line x1="0" y1="154.875" x2="288.828125" y2="154.875" fill="rgb(0, 0, 0)" stroke="rgb(66, 66, 66)" stroke-width="1px" opacity="0.25"></line><line x1="0" y1="132.75" x2="288.828125" y2="132.75" fill="rgb(0, 0, 0)" stroke="rgb(66, 66, 66)" stroke-width="1px" opacity="0.25"></line><line x1="0" y1="110.625" x2="288.828125" y2="110.625" fill="rgb(0, 0, 0)" stroke="rgb(66, 66, 66)" stroke-width="1px" opacity="0.25"></line><line x1="0" y1="88.5" x2="288.828125" y2="88.5" fill="rgb(0, 0, 0)" stroke="rgb(66, 66, 66)" stroke-width="1px" opacity="0.25"></line><line x1="0" y1="66.375" x2="288.828125" y2="66.375" fill="rgb(0, 0, 0)" stroke="rgb(66, 66, 66)" stroke-width="1px" opacity="0.25"></line><line x1="0" y1="44.25000000000002" x2="288.828125" y2="44.25000000000002" fill="rgb(0, 0, 0)" stroke="rgb(66, 66, 66)" stroke-width="1px" opacity="0.25"></line><line x1="0" y1="22.12500000000002" x2="288.828125" y2="22.12500000000002" fill="rgb(0, 0, 0)" stroke="rgb(66, 66, 66)" stroke-width="1px" opacity="0.25"></line><line x1="0" y1="0" x2="288.828125" y2="0" fill="rgb(0, 0, 0)" stroke="rgb(66, 66, 66)" stroke-width="1px" opacity="0.25"></line></g></g></g><g><g><line x1="0" y1="177" x2="288.828125" y2="177" fill="rgb(0, 0, 0)" stroke="rgb(153, 153, 153)" stroke-width="1.5px"></line></g></g><g><g><line x1="24.069010416666664" y1="0" x2="24.069010416666664" y2="177" fill="rgb(0, 0, 0)" stroke="rgb(153, 153, 153)" stroke-width="1.5px"></line></g></g><g><g><g><g><g><path stroke="rgb(255, 112, 67)" stroke-width="2px" d="M24.550390625000002,120.75273507088423L25.031770833333333,126.6378258895129L25.513151041666667,130.75175672298184L25.994531249999998,133.8133718030089L26.475911458333332,135.02822783341182L26.957291666666666,136.1806810002706L27.438671875,138.4386113858168L27.92005208333333,139.62702514661902L28.401432291666666,140.43922327135087L28.8828125,139.40878118712675L29.364192708333334,139.78588033320216L29.845572916666665,140.9163156405299L30.326953125,141.95296469034494L30.808333333333334,142.98820308959134L31.289713541666668,143.19317665243165L31.77109375,143.0642517654978L32.25247395833333,143.30712001034738L32.73385416666667,141.3598126528796L33.215234375,143.40945490188545L33.696614583333336,141.0370743499214L34.17799479166666,141.86398357823373L34.659375,142.2459753138215L35.14075520833334,142.96312270168372L35.622135416666666,143.0200747452914L36.103515625,143.86294290011855L36.584895833333334,144.4692028229859L37.06627604166666,143.3149244275656L37.54765625,142.58363162890728L38.02903645833333,143.8603247543375L38.510416666666664,144.9232232917843L38.991796875000006,145.98666362560277L39.47317708333333,146.4050446074181L39.95455729166667,145.86012276169131L40.4359375,147.0862767162945L40.917317708333336,147.3934443042646L41.39869791666667,147.4221557632648L41.880078125,147.87664281444262L42.36145833333333,147.44870147764632L42.84283854166667,147.6329078211117L43.32421875,148.30849872522828L43.805598958333334,148.1669744072809L44.28697916666666,149.2080590629196L44.768359375,148.08536705661876L45.24973958333334,147.0919187009942L45.731119791666664,148.99631438815192L46.2125,148.7862385133588L46.69388020833333,150.345965198914L47.17526041666667,148.5635471282438L47.656640625,147.57061559634275L48.13802083333333,148.8559190283931L48.61940104166667,148.7151162937704L49.100781250000004,148.74779264869838L49.58216145833333,149.51069367672665L50.063541666666666,149.9386964186772L50.544921875,150.45593986628947L51.026302083333334,149.67654381822615L51.50768229166667,150.42722010690628L51.989062499999996,151.1754965235512L52.47044270833334,151.7267389036549L52.951822916666664,150.02264683618137L53.433203125,149.94600107922548L53.91458333333333,150.07988820540544L54.39596354166667,151.08082925866626L54.87734375,149.95813613289943L55.358723958333336,150.93563300761193L55.84010416666666,150.20732671256428L56.321484375000004,150.67758945069053L56.80286458333333,150.24512156362138L57.284244791666666,150.34849103921536L57.765625,150.65958094378638L58.247005208333334,150.74237849059895L58.72838541666667,150.92487058784485L59.209765624999996,149.4240592628474L59.69114583333333,149.68203742860288L60.17252604166667,150.5330295193704L60.65390625,150.60609161874723L61.13528645833333,150.60369010952752L61.61666666666667,149.52497655414132L62.098046875,150.7071684137737L62.579427083333336,151.79015871946544L63.06080729166666,151.7757775787385L63.5421875,152.18226259299348L64.02356770833333,151.8912747329368L64.50494791666667,152.30762502183876L64.986328125,152.89194936233977L65.46770833333333,152.70755102591644L65.94908854166667,153.36239987004956L66.43046875,153.16088927992678L66.91184895833334,152.64719966774283L67.39322916666667,151.9261734253174L67.87460937499999,152.81870309954917L68.35598958333333,153.36805264247081L68.83736979166667,153.23631913195624L69.31875,153.86242602008923L69.80013020833333,153.21812786080446L70.28151041666668,152.60349045570499L70.762890625,152.4925248377073L71.24427083333333,152.70697827503372L71.72565104166667,152.76690705263786L72.20703125,153.21110995348795L72.68841145833333,153.10083171940747L73.16979166666667,153.0538440598065L73.651171875,151.86365488338555L74.13255208333332,153.55836067299893L74.61393229166667,154.35712837696582L75.0953125,154.65320105266875L75.57669270833333,153.52554317064468L76.05807291666666,153.12293845041026L76.53945312500001,154.48959263785738L77.02083333333333,155.66784741728938L77.50221354166666,156.4517013743486L77.98359375000001,155.1399356612543L78.46497395833333,155.6225450211155L78.94635416666667,155.95502153327394L79.427734375,155.41827744344073L79.90911458333333,154.9660114070725L80.39049479166667,154.3866709237368L80.871875,154.55550208554095L81.35325520833334,155.76420561442035L81.83463541666667,155.73941215258392L82.31601562499999,153.8793556683156L82.79739583333334,153.99461881625015L83.27877604166666,154.13235184882498L83.76015625,154.90910795530328L84.24153645833334,155.66376670569568L84.72291666666666,154.8875377878272L85.204296875,154.81941098971507L85.68567708333335,155.79369430543983L86.16705729166667,156.1809340435386L86.6484375,156.07781092036487L87.12981770833333,157.2074103889389L87.61119791666667,156.89679388478538L88.092578125,155.03139125794254L88.57395833333332,156.09352170968106L89.05533854166667,156.25828031476766L89.53671875,156.47486910910268L90.01809895833333,156.18537394667183L90.49947916666667,156.00605039053866L90.980859375,156.8165844604594L91.46223958333333,155.84346561358706L91.94361979166668,156.39839600310526L92.425,156.7297255771506L92.90638020833333,157.3950327718048L93.38776041666667,157.15074684225254L93.869140625,157.1226929143234L94.35052083333333,157.35200048626447L94.83190104166665,156.62234287942042L95.31328125,155.91574298283214L95.79466145833334,156.76572986656876L96.27604166666666,156.41612531596095L96.757421875,156.10445003124278L97.23880208333334,157.54486753590228L97.72018229166666,157.2206659588058L98.20156250000001,157.7036331458592L98.68294270833333,157.18645611263534L99.16432291666666,156.25256445993318L99.645703125,157.17992303514083L100.12708333333333,156.5226069286084L100.60846354166667,157.4927624013791L101.08984375,157.03202424179133L101.57122395833333,155.344441377256L102.05260416666667,155.95735137053353L102.53398437499999,155.63498481296313L103.01536458333334,156.85551708747633L103.49674479166667,157.3502248976212L103.97812499999999,156.4905390145529L104.45950520833334,155.60695371342592L104.94088541666667,155.20497409217293L105.422265625,157.31015673704584L105.90364583333333,157.76049525694634L106.38502604166668,158.90070264656296L106.86640625,158.23029325526326L107.34778645833333,158.36937321198803L107.82916666666667,159.07487027181878L108.310546875,159.23923008342797L108.79192708333333,159.07156868696342L109.27330729166667,158.5334466065176L109.7546875,158.4882829094057L110.23606770833332,158.46853739718344L110.71744791666667,158.33544725745767L111.198828125,158.28120994609503L111.68020833333333,156.52409170816486L112.16158854166666,157.94044274985876L112.64296875000001,158.49852020680956L113.12434895833333,159.07536111035975L113.60572916666666,158.44711704036015L114.08710937500001,158.3765399439956L114.56848958333333,158.70546083353906L115.04986979166667,159.01241952525348L115.53125,159.3351356527017L116.01263020833333,158.3988487282876L116.49401041666667,159.32249595132373L116.975390625,159.4409776026422L117.45677083333334,158.74911404963817L117.93815104166667,159.05903761650018L118.41953124999999,158.6438884209984L118.90091145833334,159.41729254179558L119.38229166666666,159.36526287885522L119.863671875,159.40797172362815L120.34505208333334,159.54969474896913L120.82643229166666,158.9418875111647L121.3078125,159.7826500152652L121.78919270833335,160.02739828244475L122.27057291666667,159.95109515288846L122.751953125,159.6343056255542L123.23333333333333,159.6205438789107L123.71471354166667,159.8727510521637L124.19609375,160.5293871283428L124.67747395833332,159.80941699414825L125.15885416666667,158.8964303923808L125.640234375,159.54425265748276L126.12161458333333,159.8496707356511L126.60299479166667,159.9974583425545L127.084375,159.8204002462878L127.56575520833333,159.90018337864007L128.04713541666666,159.5608925023575L128.528515625,159.82774873816368L129.00989583333333,160.21853080089923L129.49127604166665,159.19889121470476L129.97265625,159.44644566829575L130.45403645833332,159.12394029322607L130.93541666666667,158.75794684394208L131.41679687500002,159.91664390864375L131.89817708333334,159.47660855413915L132.37955729166666,160.22485207370784L132.8609375,160.61697378815333L133.34231770833333,158.8704370293684L133.82369791666667,159.13072958640262L134.305078125,158.71457828910354L134.78645833333334,159.07212964046718L135.26783854166666,159.81918930246664L135.74921874999998,160.27077539106747L136.23059895833333,160.6485473369988L136.71197916666665,160.22579663949801L137.193359375,160.69264217887877L137.67473958333335,161.0856380361292L138.15611979166667,161.05880857470473L138.6375,160.77461439497972L139.11888020833334,160.4131194085044L139.60026041666666,160.33531193018928L140.081640625,161.3949640852569L140.56302083333335,160.6497805602764L141.04440104166667,161.38463755845518L141.52578125,161.48356092139775L142.00716145833331,160.30627761134323L142.48854166666666,160.69357632830034L142.969921875,160.20442437967236L143.45130208333333,161.24917384514555L143.93268229166668,161.85722931938972L144.4140625,161.4368251165307L144.89544270833335,161.28656174618342L145.37682291666667,160.8263016946813L145.858203125,161.46477521629336L146.33958333333334,160.63768541318893L146.82096354166666,160.86856081561876L147.30234375,160.69859286011237L147.78372395833335,160.54550448275197L148.26510416666665,161.15567366609923L148.746484375,160.6711868954L149.22786458333334,160.73659830166682L149.70924479166666,160.3882188700067L150.190625,160.2519171291546L150.67200520833333,160.77290434562897L151.15338541666665,161.45609521522366L151.634765625,161.40119224655177L152.11614583333332,161.5442676938626L152.59752604166667,162.2815923238279L153.07890625000002,160.73977949213872L153.5602864583333,161.08590022469693L154.04166666666666,161.1672196648725L154.523046875,160.77825728280592L155.00442708333333,161.1881806401804L155.48580729166667,161.599977705532L155.96718750000002,161.6253037109397L156.44856770833331,160.57056947972907L156.92994791666666,161.34393084005436L157.411328125,162.02226080570173L157.89270833333333,161.78714685409398L158.37408854166668,160.56734465521058L158.85546875,160.666510997483L159.33684895833332,161.60873511032395L159.81822916666667,161.79985699636418L160.29960937500002,161.1079815958898L160.78098958333334,161.25078240692383L161.26236979166666,161.6575350137637L161.74375,162.3864168008915L162.22513020833333,161.9034278806002L162.70651041666667,162.29827623611396L163.187890625,162.5322180556995L163.66927083333334,161.7247335533942L164.15065104166666,161.67428460914763L164.63203124999998,161.2393216688864L165.11341145833333,161.2047388076444L165.59479166666668,161.80729099182244L166.076171875,161.88152871544932L166.55755208333332,162.51630717339083L167.03893229166667,162.68622820420245L167.5203125,162.12321424688804L168.00169270833334,162.78176117140595L168.48307291666669,162.99259692399826L168.96445312499998,162.79512829613165L169.44583333333333,162.47305608932064L169.92721354166667,162.6832713269823L170.40859375,162.69457666627366L170.88997395833334,162.49839788482666L171.3713541666667,161.33618633482504L171.85273437499998,162.12192283069282L172.33411458333333,161.68401875865572L172.81549479166668,162.34424104480215L173.296875,162.69835433774153L173.77825520833335,162.78384620346404L174.25963541666667,162.6190241196619L174.741015625,162.87224445157446L175.22239583333334,162.7272172654462L175.70377604166666,163.24213774113608L176.18515625,162.5842253363654L176.66653645833335,163.25993885563463L177.14791666666665,162.45894589180736L177.629296875,162.7065040687024L178.11067708333334,163.03180195804234L178.59205729166666,162.7959305251586L179.0734375,163.15393769584284L179.55481770833333,163.21627472694033L180.03619791666665,162.7566047406513L180.517578125,163.21597049065343L180.99895833333335,162.67788387792058L181.48033854166667,163.6017036278948L181.96171875,163.20403665020493L182.44309895833334,163.47430919797378L182.92447916666666,163.7333262156913L183.405859375,163.14382573911365L183.88723958333335,163.25657490014322L184.36861979166665,163.90970809493535L184.85,163.5011792629008L185.33138020833334,163.73593433568146L185.81276041666666,163.01943851258915L186.294140625,163.2421904437039L186.77552083333333,163.42899854822718L187.25690104166665,163.65736773293472L187.73828125,163.88576793070888L188.21966145833332,163.01261540738497L188.70104166666667,163.4141537013665L189.18242187500002,162.67878982874842L189.6638020833333,162.88082712450975L190.14518229166666,163.2831815462372L190.6265625,163.36024133897192L191.10794270833333,163.59390297330242L191.58932291666667,163.72955652093484L192.07070312500002,164.09852543855067L192.55208333333331,163.7744571280292L193.03346354166666,163.87774337078997L193.51484375,164.09927101356308L193.99622395833333,164.70696496991826L194.47760416666668,164.4368178328336L194.958984375,164.36346875387196L195.44036458333332,164.23425073404766L195.92174479166667,164.1895232378224L196.40312500000002,163.83015399895783L196.88450520833334,163.81844921766327L197.36588541666666,163.9306679739571L197.847265625,164.5274210973988L198.32864583333333,164.36984591510355L198.81002604166667,164.49279181965565L199.29140625,163.53197836612688L199.77278645833334,163.68834955906883L200.25416666666666,164.41086523706326L200.73554687499998,164.54595869615443L201.21692708333333,164.44747911071636L201.69830729166668,164.74885858104145L202.1796875,164.12713553014703L202.66106770833332,163.9423243146587L203.14244791666667,164.2166897761195L203.623828125,164.38269275433535L204.10520833333334,164.54898551706503L204.58658854166669,164.24789791839737L205.06796874999998,164.33469237633L205.54934895833333,163.69621801225813L206.03072916666667,164.72227940841597L206.512109375,164.4841712009703L206.99348958333334,164.2089915255782L207.4748697916667,164.3348022288875L207.95624999999998,163.75565285454965L208.43763020833333,164.30722094980345L208.91901041666668,164.6766298251299L209.400390625,164.00561404075907L209.88177083333335,163.79064726365618L210.36315104166667,163.9353875214339L210.84453125,164.0054492284048L211.32591145833334,164.94064321319394L211.80729166666666,164.7160473656662L212.288671875,164.43091841366933L212.77005208333335,163.72499382392792L213.25143229166665,163.86201185820238L213.7328125,164.8538541582986L214.21419270833334,164.48650475742008L214.69557291666666,165.0010396597629L215.176953125,164.5991127592531L215.65833333333333,164.69265475211782L216.13971354166665,164.79335115381028L216.62109375,164.46806150467958L217.10247395833335,164.08134019474247L217.58385416666667,164.19995387852228L218.065234375,164.3618123867961L218.54661458333334,164.87943554863944L219.02799479166666,164.99315130789944L219.509375,165.01634634557288L219.99075520833335,164.9062752222146L220.47213541666665,164.67890556611866L220.953515625,165.07173519333156L221.43489583333334,164.19149712622138L221.91627604166666,164.7571212360261L222.39765625,164.48146238082637L222.87903645833333,164.6434560136735L223.36041666666665,165.14994162048336L223.841796875,165.13745562419555L224.32317708333332,165.15888229644455L224.80455729166667,165.46227733723018L225.28593750000002,165.0354020315808L225.7673177083333,165.14015848783563L226.24869791666666,164.19447871057935L226.730078125,164.78927183156458L227.21145833333333,164.93986773717552L227.69283854166667,164.626191742588L228.17421875000002,165.04015635244184L228.65559895833331,164.39149245272358L229.13697916666666,163.8794219614582L229.618359375,164.00286190116506L230.09973958333333,164.2172414889431L230.58111979166668,164.70424624006426L231.0625,164.88141527605342L231.54388020833332,164.58801658128075L232.02526041666667,164.8192949264459L232.50664062500002,164.50530509653464L232.98802083333334,164.6250255838202L233.46940104166666,165.02920203567544L233.95078125,164.6857675904691L234.43216145833333,164.95709146825433L234.91354166666667,164.76810387905215L235.394921875,164.9761042323606L235.87630208333334,165.442393494883L236.35768229166666,164.67483074969877L236.83906249999998,164.94163107950584L237.32044270833333,164.8329883669561L237.80182291666668,164.91766975997362L238.283203125,164.77597992489322L238.76458333333332,164.9759267370825L239.24596354166667,165.25009460715503L239.72734375,164.98124426882296L240.20872395833334,165.4527270304014L240.69010416666669,165.66340837966501L241.17148437499998,165.73413285369338L241.65286458333333,165.4304628528932L242.13424479166667,165.44232982815979L242.615625,165.5482674549322L243.09700520833334,165.80253618718984L243.5783854166667,165.4051966451812L244.05976562499998,165.4818779026394L244.54114583333333,165.38041251346021L245.02252604166668,165.31889104735583L245.50390625,165.40677833567102L245.98528645833335,165.616416242406L246.46666666666667,165.4466355009736L246.948046875,165.22542388708064L247.42942708333334,165.13491118383806L247.91080729166666,165.38410396088602L248.3921875,165.22074883034492L248.87356770833335,165.35068810195125L249.35494791666665,165.44839965789257L249.836328125,165.12376275018596L250.31770833333334,165.2326498049095L250.79908854166666,164.16435875252455L251.28046875,164.62779076847772L251.76184895833333,165.26337572159375L252.24322916666665,164.85335568694475L252.724609375,165.55182582502485L253.20598958333335,165.04035210789692L253.68736979166667,165.40592727694784L254.16875,165.5843653269641L254.65013020833334,165.27850128005636L255.13151041666666,165.1285836833161L255.612890625,164.92484256475817L256.0942708333333,164.91488639473707L256.5756510416667,164.84201368367548L257.05703125,164.64132484972998L257.53841145833337,164.58043477419332L258.01979166666666,164.70328848501035L258.501171875,164.6748797942101L258.9825520833333,165.44206915565726L259.46393229166665,165.3950331975871L259.9453125,165.63051503046475L260.4266927083333,165.7326510199554L260.90807291666664,164.8935775707601L261.389453125,164.99014754707744L261.87083333333334,165.39017169246156L262.3522135416667,165.26201150756526L262.83359375000003,165.245503063896L263.3149739583333,165.73719352462808L263.7963541666667,165.68016081588817L264.277734375,165.61223057307214L264.7591145833333,165.6108596162344" style="fill: none;" fill="none"></path></g><g><path stroke="rgb(0, 119, 187)" stroke-width="2px" d="M24.069010416666664,-42.95282202959061L28.8828125,2.0965307280421257L33.696614583333336,27.08324551795211L38.510416666666664,41.60113342330954L43.32421875,35.59902433559844L48.13802083333333,32.386713434442875L52.951822916666664,41.74781246811654L57.765625,43.062962987177436L62.579427083333336,40.537913791250794L67.39322916666667,30.495080619755125L72.20703125,40.02936680538161L77.02083333333333,55.0048500504137L81.83463541666667,48.12189147967137L86.6484375,35.34214615485771L91.46223958333333,39.33396362062053L96.27604166666666,28.452079249496197L101.08984375,31.01809795902306L105.90364583333333,28.384753226166236L110.71744791666667,29.693642170044022L115.53125,56.96286163574103L120.34505208333334,36.98225947049716L125.15885416666667,41.1155790222455L129.97265625,23.81676268163342L134.78645833333334,16.13733959009515L139.60026041666666,16.588369339364288L144.4140625,14.246300582243547L149.22786458333334,25.08673829949793L154.04166666666666,16.27997469171531L158.85546875,19.828507266184033L163.66927083333334,19.68154787256303L168.48307291666669,10.480335786759479L173.296875,-17.903640851454416" style="fill: none;" fill="none"></path></g></g></g></g><g opacity="0.2"><g><g><g><path stroke="rgb(255, 112, 67)" stroke-width="2px" d="M24.550390625000002,120.75273507088423L25.031770833333333,130.1688803806901L25.513151041666667,134.701130323112L25.994531249999998,137.41383113712072L26.475911458333332,136.6143438667059L26.957291666666666,137.77493861317635L27.438671875,141.66748796403408L27.92005208333333,141.3597438186407L28.401432291666666,141.63705774396658L28.8828125,137.8786947838962L29.364192708333334,140.34810879081488L29.845572916666665,142.60581682249904L30.326953125,143.5045534260571L30.808333333333334,144.539032548666L31.289713541666668,143.50039605796337L31.77109375,142.870955362916L32.25247395833333,143.67131960391998L32.73385416666667,138.43934603780508L33.215234375,146.48360603302717L33.696614583333336,137.4787203669548L34.17799479166666,143.1043020710349L34.659375,142.81895034760237L35.14075520833334,144.03882962465286L35.622135416666666,143.10550213605165L36.103515625,145.12723914161325L36.584895833333334,145.37859012186527L37.06627604166666,141.58350978791714L37.54765625,141.48669355362654L38.02903645833333,145.77536326646805L38.510416666666664,146.51757051050663L38.991796875000006,147.58182377368212L39.47317708333333,147.03261599689722L39.95455729166667,145.04274005815387L40.4359375,148.92550756037235L40.917317708333336,147.8541956730187L41.39869791666667,147.46522295102477L41.880078125,148.55837338417768L42.36145833333333,146.80678947642446L42.84283854166667,147.90921733528376L43.32421875,149.32188507914543L43.805598958333334,147.95468793064356L44.28697916666666,150.76968604512513L44.768359375,146.40132904797792L45.24973958333334,145.60174616798759L45.731119791666664,151.8529079183936L46.2125,148.47112470120192L46.69388020833333,152.68555522710085L47.17526041666667,145.88992002233863L47.656640625,146.08121829852462L48.13802083333333,150.78387417644262L48.61940104166667,148.50391219183803L49.100781250000004,148.79680718109012L49.58216145833333,150.65504521876574L50.063541666666666,150.5807005316019L50.544921875,151.2318050377071L51.026302083333334,148.5074497461319L51.50768229166667,151.55323453992605L51.989062499999996,152.29791114851832L52.47044270833334,152.55360247381032L52.951822916666664,147.46650873497128L53.433203125,149.83103244379163L53.91458333333333,150.28071889467537L54.39596354166667,152.58224083855748L54.87734375,148.27409644424915L55.358723958333336,152.4018783196807L55.84010416666666,149.11486726999283L56.321484375000004,151.38298355787992L56.80286458333333,149.59641973301768L57.284244791666666,150.50354525260627L57.765625,151.12621580064297L58.247005208333334,150.86657481081784L58.72838541666667,151.19860873371363L59.209765624999996,147.1728422753513L59.69114583333333,150.06900467723608L60.17252604166667,151.80951765552163L60.65390625,150.7156847678125L61.13528645833333,150.600087845698L61.61666666666667,147.90690622106194L62.098046875,152.48045620322227L62.579427083333336,153.41464417800307L63.06080729166666,151.75420586764812L63.5421875,152.79199011437595L64.02356770833333,151.45479294285178L64.50494791666667,152.93215045519173L64.986328125,153.76843587309122L65.46770833333333,152.43095352128148L65.94908854166667,154.34467313624918L66.43046875,152.8586233947426L66.91184895833334,151.8766652494669L67.39322916666667,150.84463406167924L67.87460937499999,154.15749761089683L68.35598958333333,154.19207695685327L68.83736979166667,153.03871886618435L69.31875,154.80158635228872L69.80013020833333,152.2516806218773L70.28151041666668,151.68153434805572L70.762890625,152.3260764107108L71.24427083333333,153.02865843102336L71.72565104166667,152.8568002190441L72.20703125,153.87741430476308L72.68841145833333,152.93541436828673L73.16979166666667,152.983362570405L73.651171875,150.07837111875415L74.13255208333332,156.100419357419L74.61393229166667,155.55527993291616L75.0953125,155.09731006622314L75.57669270833333,151.83405634760857L76.05807291666666,152.51903137005866L76.53945312500001,156.53957391902804L77.02083333333333,157.43522958643734L77.50221354166666,157.62748230993748L77.98359375000001,153.17228709161282L78.46497395833333,156.34645906090736L78.94635416666667,156.45373630151153L79.427734375,154.6131613086909L79.90911458333333,154.28761235252023L80.39049479166667,153.5176601987332L80.871875,154.8087488282472L81.35325520833334,157.5772609077394L81.83463541666667,155.70222195982933L82.31601562499999,151.08927094191313L82.79739583333334,154.16751353815198L83.27877604166666,154.3389513976872L83.76015625,156.07424211502075L84.24153645833334,156.79575483128428L84.72291666666666,153.72319441102445L85.204296875,154.71722079254687L85.68567708333335,157.25511927902699L86.16705729166667,156.76179365068674L86.6484375,155.9231262356043L87.12981770833333,158.90180959179997L87.61119791666667,156.43086912855506L88.092578125,152.23328731767833L88.57395833333332,157.6867173872888L89.05533854166667,156.50541822239757L89.53671875,156.79975230060518L90.01809895833333,155.75113120302558L90.49947916666667,155.7370650563389L90.980859375,158.03238556534052L91.46223958333333,154.38378734327853L91.94361979166668,157.23079158738256L92.425,157.2267199382186L92.90638020833333,158.39299356378615L93.38776041666667,156.78431794792414L93.869140625,157.0806120224297L94.35052083333333,157.69596184417605L94.83190104166665,155.52785646915436L95.31328125,154.8558431379497L95.79466145833334,158.04071019217372L96.27604166666666,155.89171849004924L96.757421875,155.63693710416555L97.23880208333334,159.7054937928915L97.72018229166666,156.7343635931611L98.20156250000001,158.42808392643929L98.68294270833333,156.41069056279957L99.16432291666666,154.8517269808799L99.645703125,158.57096089795232L100.12708333333333,155.5366327688098L100.60846354166667,158.94799561053514L101.08984375,156.3409170024097L101.57122395833333,152.81306708045304L102.05260416666667,156.8767163604498L102.53398437499999,155.15143497660756L103.01536458333334,158.68631549924612L103.49674479166667,158.0922866128385L103.97812499999999,155.20101018995047L104.45950520833334,154.28157576173544L104.94088541666667,154.60200466029346L105.422265625,160.46793070435524L105.90364583333333,158.43600303679705L106.38502604166668,160.6110137309879L106.86640625,157.22467916831374L107.34778645833333,158.57799314707518L107.82916666666667,160.13311586156487L108.310546875,159.4857698008418L108.79192708333333,158.82007659226656L109.27330729166667,157.7262634858489L109.7546875,158.42053736373782L110.23606770833332,158.4389191288501L110.71744791666667,158.13581204786897L111.198828125,158.1998539790511L111.68020833333333,153.8884143512696L112.16158854166666,160.06496931239963L112.64296875000001,159.33563639223576L113.12434895833333,159.940622465685L113.60572916666666,157.5047509353608L114.08710937500001,158.27067429944873L114.56848958333333,159.1988421678543L115.04986979166667,159.47285756282508L115.53125,159.81920984387398L116.01263020833333,156.99441834166646L116.49401041666667,160.70796678587794L116.975390625,159.61870007961988L117.45677083333334,157.7113187201321L117.93815104166667,159.52392296679318L118.41953124999999,158.02116462774575L118.90091145833334,160.57739872299135L119.38229166666666,159.2872183844447L119.863671875,159.4720349907875L120.34505208333334,159.76227928698063L120.82643229166666,158.03017665445805L121.3078125,161.04379377141595L121.78919270833335,160.39452068321407L122.27057291666667,159.83664045855403L122.751953125,159.15912133455276L123.23333333333333,159.59990125894547L123.71471354166667,160.2510618120432L124.19609375,161.5143412426114L124.67747395833332,158.72946179285645L125.15885416666667,157.52695048972964L125.640234375,160.51598605513573L126.12161458333333,160.3077978529036L126.60299479166667,160.21913975290954L127.084375,159.5548131018877L127.56575520833333,160.01985807716846L128.04713541666666,159.05195618793368L128.528515625,160.22803309187293L129.00989583333333,160.8047038950026L129.49127604166665,157.66943183541298L129.97265625,159.81777734868228L130.45403645833332,158.64018223062158L130.93541666666667,158.20895667001605L131.41679687500002,161.6546895056963L131.89817708333334,158.81655552238226L132.37955729166666,161.34721735306084L132.8609375,161.20515635982156L133.34231770833333,156.250631891191L133.82369791666667,159.52116842195392L134.305078125,158.0903513431549L134.78645833333334,159.60845666751266L135.26783854166666,160.93977879546583L135.74921874999998,160.9481545239687L136.23059895833333,161.21520525589585L136.71197916666665,159.59167059324682L137.193359375,161.39291048794985L137.67473958333335,161.67513182200491L138.15611979166667,161.018564382568L138.6375,160.3483231253922L139.11888020833334,159.8708769287914L139.60026041666666,160.21860071271658L140.081640625,162.98444231785834L140.56302083333335,159.5320052728057L141.04440104166667,162.4869230557233L141.52578125,161.6319459658116L142.00716145833331,158.54035264626145L142.48854166666666,161.274524403736L142.969921875,159.47069645673037L143.45130208333333,162.81629804335535L143.93268229166668,162.769312530756L144.4140625,160.80621881224215L144.89544270833335,161.0611666906625L145.37682291666667,160.13591161742806L145.858203125,162.42248549871147L146.33958333333334,159.39705070853233L146.82096354166666,161.21487391926348L147.30234375,160.44364092685282L147.78372395833335,160.31587191671133L148.26510416666665,162.07092744112015L148.746484375,159.94445673935115L149.22786458333334,160.834715411067L149.70924479166666,159.86564972251654L150.190625,160.0474645178765L150.67200520833333,161.55438517034054L151.15338541666665,162.48088151961565L151.634765625,161.31883779354393L152.11614583333332,161.75888086482882L152.59752604166667,163.38757926877588L153.07890625000002,158.42706024460495L153.5602864583333,161.60508132353425L154.04166666666666,161.28919882513583L154.523046875,160.19481370970607L155.00442708333333,161.8030656762421L155.48580729166667,162.21767330355942L155.96718750000002,161.66329271905124L156.44856770833331,158.9884681329131L156.92994791666666,162.50397288054228L157.411328125,163.0397557541728L157.89270833333333,161.43447592668235L158.37408854166668,158.73764135688543L158.85546875,160.81526051089168L159.33684895833332,163.02207127958536L159.81822916666667,162.08653982542455L160.29960937500002,160.07016849517822L160.78098958333334,161.46498362347484L161.26236979166666,162.2676639240235L161.74375,163.47973948158324L162.22513020833333,161.1789445001632L162.70651041666667,162.89054876938462L163.187890625,162.8831307850778L163.66927083333334,160.5135067999363L164.15065104166666,161.59861119277775L164.63203124999998,160.5868772584945L165.11341145833333,161.1528645157814L165.59479166666668,162.71111926808953L166.076171875,161.9928853008896L166.55755208333332,163.4684748603031L167.03893229166667,162.94110975041986L167.5203125,161.27869331091642L168.00169270833334,163.76958155818284L168.48307291666669,163.30885055288672L168.96445312499998,162.49892535433173L169.44583333333333,161.9899477791041L169.92721354166667,162.99859418347478L170.40859375,162.71153467521071L170.88997395833334,162.20412971265614L171.3713541666667,159.5928690098226L171.85273437499998,163.30052757449448L172.33411458333333,161.02716265060008L172.81549479166668,163.3345744740218L173.296875,163.22952427715063L173.77825520833335,162.91208400204778L174.25963541666667,162.3717909939587L174.741015625,163.25207494944334L175.22239583333334,162.50967648625374L175.70377604166666,164.0145184546709L176.18515625,161.59735672920942L176.66653645833335,164.27350913453847L177.14791666666665,161.2574564460665L177.629296875,163.07784133404493L178.11067708333334,163.51974879205227L178.59205729166666,162.44212337583303L179.0734375,163.6909484518692L179.55481770833333,163.3097802735865L180.03619791666665,162.06709976121783L180.517578125,163.90501911565661L180.99895833333335,161.8707539588213L181.48033854166667,164.98743325285614L181.96171875,162.60753618367016L182.44309895833334,163.87971801962703L182.92447916666666,164.1218517422676L183.405859375,162.25957502424717L183.88723958333335,163.42569864168763L184.36861979166665,164.88940788712353L184.85,162.88838601484895L185.33138020833334,164.08806694485247L185.81276041666666,161.94469477795064L186.294140625,163.57631834037602L186.77552083333333,163.70921070501208L187.25690104166665,163.99992150999606L187.73828125,164.22836822737008L188.21966145833332,161.7028866223991L188.70104166666667,164.0164611423388L189.18242187500002,161.5757440198213L189.6638020833333,163.18388306815177L190.14518229166666,163.88671317882836L190.6265625,163.47583102807403L191.10794270833333,163.94439542479813L191.58932291666667,163.93303684238344L192.07070312500002,164.65197881497443L192.55208333333331,163.288354662247L193.03346354166666,164.0326727349311L193.51484375,164.43156247772276L193.99622395833333,165.618505904451L194.47760416666668,164.03159712720662L194.958984375,164.2534451354295L195.44036458333332,164.04042370431125L195.92174479166667,164.1224319934845L196.40312500000002,163.291100140661L196.88450520833334,163.8008920457214L197.36588541666666,164.09899610839784L197.847265625,165.4225507825613L198.32864583333333,164.1334831416607L198.81002604166667,164.6772106764838L199.29140625,162.0907581858337L199.77278645833334,163.92290634848177L200.25416666666666,165.4946387540549L200.73554687499998,164.74859888479114L201.21692708333333,164.29975973255932L201.69830729166668,165.20092778652906L202.1796875,163.19455095380545L202.66106770833332,163.66510749142617L203.14244791666667,164.6282379683107L203.623828125,164.63169722165912L204.10520833333334,164.79842466115952L204.58658854166669,163.79626652039587L205.06796874999998,164.46488406322896L205.54934895833333,162.73850646615028L206.03072916666667,166.26137150265276L206.512109375,164.1270088898018L206.99348958333334,163.79622201249003L207.4748697916667,164.52351828385144L207.95624999999998,162.8869287930429L208.43763020833333,165.13457309268415L208.91901041666668,165.23074313811958L209.400390625,162.99909036420286L209.88177083333335,163.46819709800184L210.36315104166667,164.1524979081005L210.84453125,164.11054178886116L211.32591145833334,166.3434341903776L211.80729166666666,164.37915359437466L212.288671875,164.00322498567402L212.77005208333335,162.6661069393158L213.25143229166665,164.0675389096141L213.7328125,166.3416176084429L214.21419270833334,163.9354806561023L214.69557291666666,165.7728420132771L215.176953125,163.9962224084884L215.65833333333333,164.8329677414149L216.13971354166665,164.94439575634897L216.62109375,163.98012703098357L217.10247395833335,163.50125822983682L217.58385416666667,164.37787440419197L218.065234375,164.60460014920682L218.54661458333334,165.65587029140443L219.02799479166666,165.16372494678944L219.509375,165.05113890208304L219.99075520833335,164.74116853717715L220.47213541666665,164.3378510819748L220.953515625,165.66097963415086L221.43489583333334,162.8711400255561L221.91627604166666,165.60555740073323L222.39765625,164.06797409802675L222.87903645833333,164.88644646294415L223.36041666666665,165.90967003069818L223.841796875,165.11872662976384L224.32317708333332,165.19102230481803L224.80455729166667,165.91736989840865L225.28593750000002,164.39508907310665L225.7673177083333,165.2972931722179L226.24869791666666,162.7759590446949L226.730078125,165.68146151304245L227.21145833333333,165.1657615955919L227.69283854166667,164.15567775070667L228.17421875000002,165.66110326722264L228.65559895833331,163.4184966031462L229.13697916666666,163.11131622456014L229.618359375,164.18802181072533L230.09973958333333,164.53881087061018L230.58111979166668,165.434753366746L231.0625,165.14716883003712L231.54388020833332,164.14791853912175L232.02526041666667,165.16621244419366L232.50664062500002,164.0343203516677L232.98802083333334,164.80460631474853L233.46940104166666,165.6354667134583L233.95078125,164.17061592265964L234.43216145833333,165.36407728493214L234.91354166666667,164.4846224952489L235.394921875,165.2881047623232L235.87630208333334,166.14182738866657L236.35768229166666,163.52348663192242L236.83906249999998,165.34183157421649L237.32044270833333,164.67002429813147L237.80182291666668,165.04469184949994L238.283203125,164.56344517227262L238.76458333333332,165.27584695536643L239.24596354166667,165.6613464122638L239.72734375,164.57796876132488L240.20872395833334,166.15995117276907L240.69010416666669,165.9794304035604L241.17148437499998,165.8402195647359L241.65286458333333,164.97495785169303L242.13424479166667,165.4601302910596L242.615625,165.70717389509082L243.09700520833334,166.18393928557634L243.5783854166667,164.80918733216822L244.05976562499998,165.5968997888267L244.54114583333333,165.22821442969143L245.02252604166668,165.22660884819925L245.50390625,165.53860926814377L245.98528645833335,165.93087310250849L246.46666666666667,165.191964388825L246.948046875,164.89360646624118L247.42942708333334,164.9991421289742L247.91080729166666,165.75789312645793L248.3921875,164.9757161345333L248.87356770833335,165.5455970093608L249.35494791666665,165.59496699180454L249.836328125,164.63680738862604L250.31770833333334,165.39598038699478L250.79908854166666,162.5619221739471L251.28046875,165.3229387924075L251.76184895833333,166.21675315126777L252.24322916666665,164.23832563497126L252.724609375,166.59953103214502L253.20598958333335,164.27314153220505L253.68736979166667,165.95429003052413L254.16875,165.8520224019885L254.65013020833334,164.8197052096948L255.13151041666666,164.90370728820562L255.612890625,164.6192308869213L256.0942708333333,164.89995213970542L256.5756510416667,164.73270461708307L257.05703125,164.34029159881175L257.53841145833337,164.48909966088831L258.01979166666666,164.88756905123591L258.501171875,164.6322667580098L258.9825520833333,166.59285319782794L259.46393229166665,165.3244792604819L259.9453125,165.98373777978122L260.4266927083333,165.8858550041914L260.90807291666664,163.6349673969671L261.389453125,165.13500251155347L261.87083333333334,165.99020791053772L262.3522135416667,165.0697712302208L262.83359375000003,165.22074039839208L263.3149739583333,166.47472921572626L263.7963541666667,165.5946117527783L264.277734375,165.51033520884812L264.7591145833333,165.6088031809777" style="fill: none;" fill="none"></path></g><g><path stroke="rgb(0, 119, 187)" stroke-width="2px" d="M24.069010416666664,-42.95282202959061L28.8828125,29.126142382621765L33.696614583333336,51.07049171626568L38.510416666666664,58.67416960000992L43.32421875,27.76267071068287L48.13802083333333,27.94293102622032L52.951822916666664,55.13433386385441L57.765625,44.980465069413185L62.579427083333336,36.81395669281483L67.39322916666667,15.582643792033195L72.20703125,54.244320809841156L77.02083333333333,77.38657899945974L81.83463541666667,37.81992767751217L86.6484375,16.197565019130707L91.46223958333333,45.31699758768082L96.27604166666666,12.13692744076252L101.08984375,34.86604017019272L105.90364583333333,24.435404732823372L110.71744791666667,31.656776189804077L115.53125,97.86419831961393L120.34505208333334,7.012452006340027L125.15885416666667,47.31542234122753L129.97265625,-2.1311202943325043L134.78645833333334,4.618295922875404L139.60026041666666,17.264910757541656L144.4140625,10.733207434415817L149.22786458333334,41.34736713767052L154.04166666666666,3.0698428004980087L158.85546875,25.151302859187126L163.66927083333334,19.46110886335373L168.48307291666669,-3.3214792907238007" style="fill: none;" fill="none"></path></g></g></g></g></g></g><g transform="translate(41, 177)" clip-path="url(#clip_1)"><clipPath id="clip_1"><rect width="288" height="23"></rect></clipPath><g><g><line x1="0" y1="0" x2="0" y2="5" style="visibility: inherit;" fill="rgb(0, 0, 0)" stroke="rgb(204, 204, 204)" stroke-width="1px"></line><line x1="24.069010416666664" y1="0" x2="24.069010416666664" y2="5" style="visibility: inherit;" fill="rgb(0, 0, 0)" stroke="rgb(204, 204, 204)" stroke-width="1px"></line><line x1="48.13802083333333" y1="0" x2="48.13802083333333" y2="5" style="visibility: inherit;" fill="rgb(0, 0, 0)" stroke="rgb(204, 204, 204)" stroke-width="1px"></line><line x1="72.20703125" y1="0" x2="72.20703125" y2="5" style="visibility: inherit;" fill="rgb(0, 0, 0)" stroke="rgb(204, 204, 204)" stroke-width="1px"></line><line x1="96.27604166666666" y1="0" x2="96.27604166666666" y2="5" style="visibility: inherit;" fill="rgb(0, 0, 0)" stroke="rgb(204, 204, 204)" stroke-width="1px"></line><line x1="120.34505208333334" y1="0" x2="120.34505208333334" y2="5" style="visibility: inherit;" fill="rgb(0, 0, 0)" stroke="rgb(204, 204, 204)" stroke-width="1px"></line><line x1="144.4140625" y1="0" x2="144.4140625" y2="5" style="visibility: inherit;" fill="rgb(0, 0, 0)" stroke="rgb(204, 204, 204)" stroke-width="1px"></line><line x1="168.48307291666669" y1="0" x2="168.48307291666669" y2="5" style="visibility: inherit;" fill="rgb(0, 0, 0)" stroke="rgb(204, 204, 204)" stroke-width="1px"></line><line x1="192.55208333333331" y1="0" x2="192.55208333333331" y2="5" style="visibility: inherit;" fill="rgb(0, 0, 0)" stroke="rgb(204, 204, 204)" stroke-width="1px"></line><line x1="216.62109375" y1="0" x2="216.62109375" y2="5" style="visibility: inherit;" fill="rgb(0, 0, 0)" stroke="rgb(204, 204, 204)" stroke-width="1px"></line><line x1="240.69010416666669" y1="0" x2="240.69010416666669" y2="5" style="visibility: inherit;" fill="rgb(0, 0, 0)" stroke="rgb(204, 204, 204)" stroke-width="1px"></line><line x1="264.7591145833333" y1="0" x2="264.7591145833333" y2="5" style="visibility: inherit;" fill="rgb(0, 0, 0)" stroke="rgb(204, 204, 204)" stroke-width="1px"></line><line x1="288.828125" y1="0" x2="288.828125" y2="5" style="visibility: inherit;" fill="rgb(0, 0, 0)" stroke="rgb(204, 204, 204)" stroke-width="1px"></line></g><g transform="translate(0, 8)"><text x="0" y="0" dx="0em" dy="0.95em" style="text-anchor: middle; visibility: hidden; font-family: Roboto, sans-serif; font-size: 12px; font-weight: 200;" fill="rgb(33, 33, 33)" stroke="none" stroke-width="1px">-5k</text><text x="24.069010416666664" y="0" dx="0em" dy="0.95em" style="text-anchor: middle; visibility: inherit; font-family: Roboto, sans-serif; font-size: 12px; font-weight: 200;" fill="rgb(33, 33, 33)" stroke="none" stroke-width="1px">0</text><text x="48.13802083333333" y="0" dx="0em" dy="0.95em" style="text-anchor: middle; visibility: hidden; font-family: Roboto, sans-serif; font-size: 12px; font-weight: 200;" fill="rgb(33, 33, 33)" stroke="none" stroke-width="1px">5k</text><text x="72.20703125" y="0" dx="0em" dy="0.95em" style="text-anchor: middle; visibility: inherit; font-family: Roboto, sans-serif; font-size: 12px; font-weight: 200;" fill="rgb(33, 33, 33)" stroke="none" stroke-width="1px">10k</text><text x="96.27604166666666" y="0" dx="0em" dy="0.95em" style="text-anchor: middle; visibility: hidden; font-family: Roboto, sans-serif; font-size: 12px; font-weight: 200;" fill="rgb(33, 33, 33)" stroke="none" stroke-width="1px">15k</text><text x="120.34505208333334" y="0" dx="0em" dy="0.95em" style="text-anchor: middle; visibility: inherit; font-family: Roboto, sans-serif; font-size: 12px; font-weight: 200;" fill="rgb(33, 33, 33)" stroke="none" stroke-width="1px">20k</text><text x="144.4140625" y="0" dx="0em" dy="0.95em" style="text-anchor: middle; visibility: hidden; font-family: Roboto, sans-serif; font-size: 12px; font-weight: 200;" fill="rgb(33, 33, 33)" stroke="none" stroke-width="1px">25k</text><text x="168.48307291666669" y="0" dx="0em" dy="0.95em" style="text-anchor: middle; visibility: inherit; font-family: Roboto, sans-serif; font-size: 12px; font-weight: 200;" fill="rgb(33, 33, 33)" stroke="none" stroke-width="1px">30k</text><text x="192.55208333333331" y="0" dx="0em" dy="0.95em" style="text-anchor: middle; visibility: hidden; font-family: Roboto, sans-serif; font-size: 12px; font-weight: 200;" fill="rgb(33, 33, 33)" stroke="none" stroke-width="1px">35k</text><text x="216.62109375" y="0" dx="0em" dy="0.95em" style="text-anchor: middle; visibility: inherit; font-family: Roboto, sans-serif; font-size: 12px; font-weight: 200;" fill="rgb(33, 33, 33)" stroke="none" stroke-width="1px">40k</text><text x="240.69010416666669" y="0" dx="0em" dy="0.95em" style="text-anchor: middle; visibility: hidden; font-family: Roboto, sans-serif; font-size: 12px; font-weight: 200;" fill="rgb(33, 33, 33)" stroke="none" stroke-width="1px">45k</text><text x="264.7591145833333" y="0" dx="0em" dy="0.95em" style="text-anchor: middle; visibility: inherit; font-family: Roboto, sans-serif; font-size: 12px; font-weight: 200;" fill="rgb(33, 33, 33)" stroke="none" stroke-width="1px">50k</text><text x="288.828125" y="0" dx="0em" dy="0.95em" style="text-anchor: middle; visibility: hidden; font-family: Roboto, sans-serif; font-size: 12px; font-weight: 200;" fill="rgb(33, 33, 33)" stroke="none" stroke-width="1px">55k</text></g><line x1="0" y1="0" x2="288.828125" y2="0" fill="rgb(0, 0, 0)" stroke="rgb(204, 204, 204)" stroke-width="1px"></line></g></g></g></g></svg>