<svg viewBox="0 0 330 200" xmlns="http://www.w3.org/2000/svg"><g><g><g><g><g><line x1="51.5625" y1="177" x2="46.5625" y2="177" style="visibility: inherit;" fill="rgb(0, 0, 0)" stroke="rgb(204, 204, 204)" stroke-width="1px"></line><line x1="51.5625" y1="154.875" x2="46.5625" y2="154.875" style="visibility: inherit;" fill="rgb(0, 0, 0)" stroke="rgb(204, 204, 204)" stroke-width="1px"></line><line x1="51.5625" y1="132.75" x2="46.5625" y2="132.75" style="visibility: inherit;" fill="rgb(0, 0, 0)" stroke="rgb(204, 204, 204)" stroke-width="1px"></line><line x1="51.5625" y1="110.62499999999999" x2="46.5625" y2="110.62499999999999" style="visibility: inherit;" fill="rgb(0, 0, 0)" stroke="rgb(204, 204, 204)" stroke-width="1px"></line><line x1="51.5625" y1="88.49999999999999" x2="46.5625" y2="88.49999999999999" style="visibility: inherit;" fill="rgb(0, 0, 0)" stroke="rgb(204, 204, 204)" stroke-width="1px"></line><line x1="51.5625" y1="66.375" x2="46.5625" y2="66.375" style="visibility: inherit;" fill="rgb(0, 0, 0)" stroke="rgb(204, 204, 204)" stroke-width="1px"></line><line x1="51.5625" y1="44.25" x2="46.5625" y2="44.25" style="visibility: inherit;" fill="rgb(0, 0, 0)" stroke="rgb(204, 204, 204)" stroke-width="1px"></line><line x1="51.5625" y1="22.125" x2="46.5625" y2="22.125" style="visibility: inherit;" fill="rgb(0, 0, 0)" stroke="rgb(204, 204, 204)" stroke-width="1px"></line><line x1="51.5625" y1="0" x2="46.5625" y2="0" style="visibility: inherit;" fill="rgb(0, 0, 0)" stroke="rgb(204, 204, 204)" stroke-width="1px"></line></g><g transform="translate(41.5625, 0)"><text x="0" y="177" dx="0em" dy="0.3em" style="text-anchor: end; visibility: hidden; font-family: Roboto, sans-serif; font-size: 12px; font-weight: 200;" fill="rgb(33, 33, 33)" stroke="none" stroke-width="1px">-0.2</text><text x="0" y="154.875" dx="0em" dy="0.3em" style="text-anchor: end; visibility: inherit; font-family: Roboto, sans-serif; font-size: 12px; font-weight: 200;" fill="rgb(33, 33, 33)" stroke="none" stroke-width="1px">0</text><text x="0" y="132.75" dx="0em" dy="0.3em" style="text-anchor: end; visibility: hidden; font-family: Roboto, sans-serif; font-size: 12px; font-weight: 200;" fill="rgb(33, 33, 33)" stroke="none" stroke-width="1px">0.2</text><text x="0" y="110.62499999999999" dx="0em" dy="0.3em" style="text-anchor: end; visibility: inherit; font-family: Roboto, sans-serif; font-size: 12px; font-weight: 200;" fill="rgb(33, 33, 33)" stroke="none" stroke-width="1px">0.4</text><text x="0" y="88.49999999999999" dx="0em" dy="0.3em" style="text-anchor: end; visibility: hidden; font-family: Roboto, sans-serif; font-size: 12px; font-weight: 200;" fill="rgb(33, 33, 33)" stroke="none" stroke-width="1px">0.6</text><text x="0" y="66.375" dx="0em" dy="0.3em" style="text-anchor: end; visibility: inherit; font-family: Roboto, sans-serif; font-size: 12px; font-weight: 200;" fill="rgb(33, 33, 33)" stroke="none" stroke-width="1px">0.8</text><text x="0" y="44.25" dx="0em" dy="0.3em" style="text-anchor: end; visibility: hidden; font-family: Roboto, sans-serif; font-size: 12px; font-weight: 200;" fill="rgb(33, 33, 33)" stroke="none" stroke-width="1px">1</text><text x="0" y="22.125" dx="0em" dy="0.3em" style="text-anchor: end; visibility: inherit; font-family: Roboto, sans-serif; font-size: 12px; font-weight: 200;" fill="rgb(33, 33, 33)" stroke="none" stroke-width="1px">1.2</text><text x="0" y="0" dx="0em" dy="0.3em" style="text-anchor: end; visibility: hidden; font-family: Roboto, sans-serif; font-size: 12px; font-weight: 200;" fill="rgb(33, 33, 33)" stroke="none" stroke-width="1px">1.4</text></g><line x1="51.5625" y1="0" x2="51.5625" y2="177" fill="rgb(0, 0, 0)" stroke="rgb(204, 204, 204)" stroke-width="1px"></line></g></g><g transform="translate(51, 0)" clip-path="url(#clip_0)"><clipPath id="clip_0"><rect width="278" height="177"></rect></clipPath><g><g><g><line x1="0" y1="0" x2="0" y2="177" fill="rgb(0, 0, 0)" stroke="rgb(66, 66, 66)" stroke-width="1px" opacity="0.25"></line><line x1="23.203125" y1="0" x2="23.203125" y2="177" fill="rgb(0, 0, 0)" stroke="rgb(66, 66, 66)" stroke-width="1px" opacity="0.25"></line><line x1="46.40625" y1="0" x2="46.40625" y2="177" fill="rgb(0, 0, 0)" stroke="rgb(66, 66, 66)" stroke-width="1px" opacity="0.25"></line><line x1="69.609375" y1="0" x2="69.609375" y2="177" fill="rgb(0, 0, 0)" stroke="rgb(66, 66, 66)" stroke-width="1px" opacity="0.25"></line><line x1="92.8125" y1="0" x2="92.8125" y2="177" fill="rgb(0, 0, 0)" stroke="rgb(66, 66, 66)" stroke-width="1px" opacity="0.25"></line><line x1="116.015625" y1="0" x2="116.015625" y2="177" fill="rgb(0, 0, 0)" stroke="rgb(66, 66, 66)" stroke-width="1px" opacity="0.25"></line><line x1="139.21875" y1="0" x2="139.21875" y2="177" fill="rgb(0, 0, 0)" stroke="rgb(66, 66, 66)" stroke-width="1px" opacity="0.25"></line><line x1="162.421875" y1="0" x2="162.421875" y2="177" fill="rgb(0, 0, 0)" stroke="rgb(66, 66, 66)" stroke-width="1px" opacity="0.25"></line><line x1="185.625" y1="0" x2="185.625" y2="177" fill="rgb(0, 0, 0)" stroke="rgb(66, 66, 66)" stroke-width="1px" opacity="0.25"></line><line x1="208.828125" y1="0" x2="208.828125" y2="177" fill="rgb(0, 0, 0)" stroke="rgb(66, 66, 66)" stroke-width="1px" opacity="0.25"></line><line x1="232.03125" y1="0" x2="232.03125" y2="177" fill="rgb(0, 0, 0)" stroke="rgb(66, 66, 66)" stroke-width="1px" opacity="0.25"></line><line x1="255.234375" y1="0" x2="255.234375" y2="177" fill="rgb(0, 0, 0)" stroke="rgb(66, 66, 66)" stroke-width="1px" opacity="0.25"></line><line x1="278.4375" y1="0" x2="278.4375" y2="177" fill="rgb(0, 0, 0)" stroke="rgb(66, 66, 66)" stroke-width="1px" opacity="0.25"></line></g><g><line x1="0" y1="177" x2="278.4375" y2="177" fill="rgb(0, 0, 0)" stroke="rgb(66, 66, 66)" stroke-width="1px" opacity="0.25"></line><line x1="0" y1="154.875" x2="278.4375" y2="154.875" fill="rgb(0, 0, 0)" stroke="rgb(66, 66, 66)" stroke-width="1px" opacity="0.25"></line><line x1="0" y1="132.75" x2="278.4375" y2="132.75" fill="rgb(0, 0, 0)" stroke="rgb(66, 66, 66)" stroke-width="1px" opacity="0.25"></line><line x1="0" y1="110.62499999999999" x2="278.4375" y2="110.62499999999999" fill="rgb(0, 0, 0)" stroke="rgb(66, 66, 66)" stroke-width="1px" opacity="0.25"></line><line x1="0" y1="88.49999999999999" x2="278.4375" y2="88.49999999999999" fill="rgb(0, 0, 0)" stroke="rgb(66, 66, 66)" stroke-width="1px" opacity="0.25"></line><line x1="0" y1="66.375" x2="278.4375" y2="66.375" fill="rgb(0, 0, 0)" stroke="rgb(66, 66, 66)" stroke-width="1px" opacity="0.25"></line><line x1="0" y1="44.25" x2="278.4375" y2="44.25" fill="rgb(0, 0, 0)" stroke="rgb(66, 66, 66)" stroke-width="1px" opacity="0.25"></line><line x1="0" y1="22.125" x2="278.4375" y2="22.125" fill="rgb(0, 0, 0)" stroke="rgb(66, 66, 66)" stroke-width="1px" opacity="0.25"></line><line x1="0" y1="0" x2="278.4375" y2="0" fill="rgb(0, 0, 0)" stroke="rgb(66, 66, 66)" stroke-width="1px" opacity="0.25"></line></g></g></g><g><g><line x1="0" y1="154.875" x2="278.4375" y2="154.875" fill="rgb(0, 0, 0)" stroke="rgb(153, 153, 153)" stroke-width="1.5px"></line></g></g><g><g><line x1="23.203125" y1="0" x2="23.203125" y2="177" fill="rgb(0, 0, 0)" stroke="rgb(153, 153, 153)" stroke-width="1.5px"></line></g></g><g><g><g><g><g><path stroke="rgb(255, 112, 67)" stroke-width="2px" d="M23.6671875,134.78299223072827L24.13125,136.91286552068777L24.5953125,138.53273788159143L25.059375,139.57514918013476L25.523437499999996,140.4483943506455L25.9875,140.8277334361362L26.4515625,141.64736454916772L26.915625,142.44038913784883L27.3796875,142.80474198280604L27.84375,141.56825607628824L28.3078125,141.83312722038528L28.771875,142.19896675413898L29.2359375,143.018854607204L29.700000000000003,143.49314119722382L30.1640625,143.28689134532414L30.628125,143.39858486635927L31.092187499999998,143.1690535655771L31.55625,142.89048276878785L32.0203125,143.81077258209248L32.484375,142.34228393546954L32.9484375,142.20515052396112L33.4125,142.4128758870167L33.8765625,143.16486148442283L34.340625,142.93092439171875L34.8046875,143.33768162496514L35.268750000000004,143.46973468011444L35.7328125,142.76789600033084L36.196875,142.6447784804194L36.660937499999996,143.39478460448578L37.125,143.4624674141881L37.589062500000004,143.49873674481756L38.053124999999994,143.9740678946165L38.5171875,143.86072923513873L38.98125,144.65740917795694L39.4453125,144.4748475932912L39.909375000000004,144.61166619181705L40.373437499999994,144.6434264910403L40.8375,144.60413313536256L41.3015625,144.56828909473128L41.765625,144.79013277795173L42.229687500000004,144.61153231967822L42.693749999999994,145.24279018281578L43.1578125,143.968294781309L43.621875,143.9234166487894L44.0859375,144.81958340683008L44.550000000000004,144.84808895150556L45.014062499999994,145.66545035974602L45.478125,143.85516321713985L45.9421875,143.44166726576879L46.40625,144.36121020776832L46.8703125,144.55098053887758L47.334375,144.47529510565246L47.7984375,144.94977344070543L48.2625,145.32762340117833L48.7265625,145.4552264696172L49.190625,144.79944599670512L49.6546875,145.16513060034725L50.11875,145.51054456272078L50.5828125,145.90036898553882L51.04687499999999,145.08523702517454L51.5109375,144.85081725020888L51.975,144.70805472142803L52.4390625,145.2275069106806L52.903125,144.7374741304182L53.36718750000001,145.27688445073446L53.83125,144.96150426371145L54.2953125,145.33569447839704L54.759375,144.75275244351892L55.2234375,145.06807611271245L55.6875,144.87214076748194L56.1515625,144.80693107794642L56.615625,144.79403426766945L57.0796875,143.3296120968941L57.54375,143.9553771135201L58.0078125,144.5780788591945L58.471875,144.3676948599633L58.9359375,144.4896286746184L59.400000000000006,144.08023095140277L59.864062499999996,144.72989389976513L60.328125,145.2711952615121L60.7921875,145.2054007422679L61.25625,145.24536602701266L61.720312500000006,145.2820741292418L62.184374999999996,145.42634935008473L62.6484375,145.75362840303472L63.1125,145.18402895187552L63.5765625,145.70815740178654L64.040625,145.7335546342321L64.5046875,145.62304099591302L64.96875,145.16029595027402L65.4328125,145.56099589394054L65.896875,145.76529489220096L66.3609375,145.54414336091824L66.825,146.0448741221073L67.2890625,145.77922971195835L67.753125,145.06622735796486L68.2171875,145.15614553287992L68.68125,145.20486692373674L69.1453125,145.06080971045625L69.609375,145.55747246784466L70.0734375,145.61825650136174L70.53750000000001,145.62822790339888L71.0015625,144.12863291216075L71.465625,145.4101503575574L71.92968750000001,145.97712977474814L72.39375,146.08591323976745L72.8578125,145.37411616413314L73.32187499999999,145.1863836332024L73.7859375,145.88756359011595L74.25,146.4870222375731L74.7140625,146.97385816147565L75.17812500000001,146.28415718336785L75.6421875,146.63587818166545L76.10624999999999,146.98926486668546L76.5703125,146.6302314331982L77.034375,146.5483060780676L77.4984375,145.9882521966703L77.9625,145.97260821474237L78.4265625,146.6168026196965L78.890625,146.34034037697367L79.3546875,145.3704877155754L79.81875000000001,145.22776925386387L80.2828125,145.47227177699745L80.74687499999999,145.93822915885053L81.2109375,146.44452521187486L81.675,146.15654682767342L82.1390625,146.02673234508606L82.603125,146.56634930836364L83.0671875,146.64022506850782L83.53125,146.63304960252535L83.99531250000001,147.18124387146796L84.45937500000001,146.9308572343395L84.92343749999999,145.77142596059477L85.38749999999999,146.2028824366685L85.8515625,146.44151874237096L86.315625,146.51773228222334L86.7796875,145.97596989593924L87.24375,145.98128409920346L87.7078125,146.6426617968125L88.171875,146.2136597178455L88.63593750000001,146.45081086856575L89.10000000000001,146.59183489696653L89.56406249999999,147.01026190469548L90.02812499999999,146.7857930058234L90.4921875,146.80129782521684L90.95625,146.81742822960888L91.4203125,146.6765171048693L91.884375,146.17097245649413L92.3484375,146.60646272783526L92.8125,146.37921470826893L93.27656250000001,146.18515628643945L93.740625,147.01900722313295L94.20468749999999,146.9596483426742L94.66875,147.164300537032L95.1328125,146.64391568916867L95.596875,146.34143431964713L96.0609375,146.73527710763034L96.525,146.4501354087288L96.9890625,146.90538608104856L97.453125,146.70492027555923L97.91718750000001,145.50822961765542L98.38125,145.84329930953987L98.84531249999999,145.4900169168431L99.309375,146.22184586678554L99.7734375,146.44547617862887L100.2375,145.94806014742116L100.70156250000001,145.67175634389017L101.165625,144.94459320789514L101.6296875,146.27050656805744L102.09374999999999,146.42729376878032L102.5578125,147.3265482286032L103.021875,147.02181378934776L103.48593749999999,146.9510710671335L103.95,147.2962698420757L104.4140625,147.43037998674058L104.878125,147.40379532872285L105.34218750000001,147.0956306804636L105.80625,147.0820062257003L106.2703125,147.1164269374848L106.73437500000001,146.67378437419478L107.1984375,146.73970262050477L107.6625,145.50198678651358L108.12656249999999,146.51101323074195L108.590625,146.83924490425645L109.0546875,147.20428862028513L109.51875,146.8371744128507L109.98281250000001,146.6293067800219L110.446875,146.7960671569237L110.91093749999999,147.17340400988334L111.375,147.32332736283226L111.8390625,146.91918460558168L112.303125,147.21596201341038L112.7671875,147.272361646701L113.23125,146.81435379049725L113.6953125,147.10881442374912L114.159375,147.06436201026693L114.62343750000001,147.59947561377678L115.0875,147.4037440186256L115.55156249999999,147.41613264474356L116.015625,147.5513387868141L116.4796875,147.32347144592313L116.94375,147.71910285001104L117.4078125,147.76425962996547L117.871875,147.74472194076816L118.3359375,147.4974348066672L118.80000000000001,147.53628288915303L119.26406250000001,147.5415686742845L119.72812499999999,147.80955855854646L120.19218749999999,147.40670272109386L120.65625,146.80405515855537L121.1203125,147.27979665596627L121.584375,147.28600999772158L122.0484375,147.44445045067133L122.5125,147.50461821644464L122.9765625,147.49597194612895L123.44062500000001,147.3920307018362L123.90468750000001,147.40024428452566L124.36874999999999,147.37226098074325L124.83281249999999,146.88898099985008L125.296875,147.05295276955536L125.7609375,146.90566867554648L126.225,146.64666908473947L126.6890625,147.44197221076445L127.153125,146.99741497286234L127.6171875,147.49200237127735L128.08125,147.66622668851969L128.5453125,146.41349730588232L129.009375,146.72392479894896L129.47343750000002,146.51864096116032L129.9375,146.69710337387625L130.4015625,147.29212494949758L130.865625,147.4830831841246L131.3296875,147.7742917054886L131.79375,147.54950412967767L132.2578125,147.87806471390405L132.721875,147.9614711665534L133.1859375,147.94664657866494L133.65,147.9205104522737L134.11406250000002,147.55508960859967L134.578125,147.51753222094175L135.04218749999998,148.13285509323296L135.50625,147.62276513509582L135.9703125,148.0497192794912L136.434375,148.15277599814283L136.8984375,147.43112335106878L137.3625,147.69474873468963L137.8265625,147.26061077580266L138.290625,147.9526814207981L138.75468750000002,148.3017004946947L139.21875,147.97755709819972L139.6828125,147.96637802441703L140.146875,147.7187021404194L140.6109375,148.0613092667423L141.07500000000002,147.79986263656986L141.5390625,147.70363189969584L142.003125,147.69585869204477L142.46718750000002,147.52824341165407L142.93125,147.86146708597173L143.39531250000002,147.41616952021081L143.85937500000003,147.45974484964702L144.32343749999998,147.11675004815754L144.7875,147.19257743600426L145.25156249999998,147.47933737937163L145.715625,147.8539705842945L146.1796875,147.75198269383387L146.64374999999998,147.89249335990863L147.1078125,148.3208585646988L147.571875,147.31665880820103L148.0359375,147.40387566330102L148.5,147.70380853156487L148.9640625,147.43852797658883L149.428125,147.83382776032622L149.8921875,147.96105299216202L150.35625000000002,148.1364236616146L150.8203125,147.51887822407792L151.284375,147.91213448443744L151.74843750000002,148.34446849546572L152.21249999999998,148.03109798056926L152.6765625,147.4305315627041L153.140625,147.43046145034626L153.60468749999998,147.9446648809257L154.06875,148.08499255216526L154.5328125,147.68142058587912L154.996875,147.75097451291586L155.4609375,148.02822391462092L155.925,148.4829496737004L156.3890625,148.03649599489157L156.853125,148.4393371582722L157.3171875,148.49566313159139L157.78125,147.93693221826356L158.2453125,147.7102979058415L158.709375,147.82226954307498L159.1734375,147.92442172765786L159.63750000000002,148.18993624560568L160.1015625,148.1805547182264L160.565625,148.52117027480912L161.02968750000002,148.51558427782064L161.49374999999998,148.14457825546685L161.9578125,148.60846820831432L162.421875,148.73814659873477L162.88593749999998,148.5648560181101L163.35,148.419454370355L163.8140625,148.48573483100705L164.278125,148.45285499566748L164.7421875,148.39693507871897L165.20625,147.69909867761655L165.6703125,148.15479157227648L166.134375,147.84037425284606L166.59843750000002,148.13823434007926L167.0625,148.3646862753422L167.5265625,148.4902950673217L167.99062500000002,148.40794756722687L168.4546875,148.64104195494048L168.91875000000002,148.53760601093526L169.38281249999997,148.80772277085578L169.84687499999998,148.5364711086815L170.3109375,148.85639236034396L170.77499999999998,148.51177741497125L171.2390625,148.48984681351104L171.703125,148.74040405881775L172.16718749999998,148.55579069887025L172.63125,148.68920343952283L173.0953125,148.8556978003645L173.559375,148.5158980127179L174.0234375,148.86847328758262L174.4875,148.54356499308957L174.9515625,148.94909991164275L175.415625,148.8082404883311L175.87968750000002,148.89325792035348L176.34375,149.08746086267908L176.8078125,148.76492796198744L177.27187500000002,148.76200030565244L177.7359375,149.09482744321963L178.20000000000002,148.8526043989777L178.66406250000003,148.9238498336684L179.12812499999998,148.47444878267416L179.5921875,148.61341512462297L180.05624999999998,148.65007349743428L180.5203125,148.92957560412722L180.984375,149.17904283649557L181.44843749999998,148.7086134809067L181.9125,148.91850961921722L182.3765625,148.3377100567705L182.840625,148.62561408281692L183.3046875,148.80437545091132L183.76875,148.8597869903831L184.2328125,149.01434400284964L184.696875,148.96212304930197L185.16093750000002,149.27288582429472L185.625,149.03215479574462L186.0890625,149.12825618853785L186.55312500000002,149.20679947425793L187.01718749999998,149.5223241077877L187.48125,149.39621498578143L187.9453125,149.25423372193936L188.40937499999998,149.17448448910423L188.8734375,149.04787491313581L189.3375,148.7780647094665L189.8015625,148.8379252163689L190.265625,148.99153443530176L190.7296875,149.40298534172757L191.19375,149.39608416978558L191.6578125,149.47463404550575L192.121875,148.95584578332708L192.5859375,149.05161625231744L193.05,149.38571725762154L193.5140625,149.38610724122086L193.978125,149.32659513733242L194.44218750000002,149.53604187116147L194.90625,149.274177102641L195.3703125,148.93451417588935L195.83437500000002,149.1448143492117L196.29843749999998,149.29822686266002L196.7625,149.49544127721992L197.2265625,149.31532809772733L197.69062499999998,149.32181101151494L198.1546875,148.7313174585741L198.61875,149.37120266178198L199.0828125,149.50054295759764L199.546875,149.31377561424742L200.0109375,149.46739575604093L200.475,148.94118653645063L200.9390625,149.2161714146134L201.40312500000002,149.45652642456275L201.8671875,148.9847521566679L202.33125,148.80623106205192L202.79531250000002,148.87506161879733L203.259375,149.049700693421L203.72343750000002,149.6201982156604L204.18749999999997,149.58817436117198L204.65156249999998,149.3030495431618L205.115625,148.91897448612576L205.57968749999998,148.88941126928225L206.04375,149.5076080673739L206.5078125,149.313494819853L206.97187499999998,149.59988490604806L207.4359375,149.480182943238L207.9,149.53454827237468L208.3640625,149.53398039713258L208.828125,149.37831466343107L209.2921875,149.03638258246244L209.75625,149.09832384872533L210.2203125,149.17493167948334L210.68437500000002,149.62223389070695L211.1484375,149.70612829928973L211.6125,149.84484940323458L212.07656250000002,149.84567848028675L212.540625,149.55440336071362L213.00468750000002,149.82989856215067L213.46875000000003,149.27367439485639L213.93281249999998,149.59960574353963L214.396875,149.56823753309385L214.86093749999998,149.64256918108993L215.325,149.8274406046884L215.7890625,149.7851598289589L216.25312499999998,149.7720333454448L216.7171875,149.94729067377375L217.18125,149.56547121512668L217.6453125,149.77360707406865L218.109375,149.26873996561568L218.5734375,149.61835686668485L219.0375,149.71529369647638L219.5015625,149.529112666296L219.96562500000002,149.66384498220503L220.4296875,149.34050197957797L220.89375,148.9931125383606L221.35781250000002,149.03623244727586L221.82187499999998,149.17279357632208L222.2859375,149.4655393122596L222.75,149.6182993050419L223.21406249999998,149.4218503511922L223.678125,149.56174835071573L224.1421875,149.38346799894785L224.60625,149.41189596949286L225.0703125,149.63564285091024L225.534375,149.47019963328665L225.9984375,149.54213715394363L226.4625,149.41593834787622L226.9265625,149.55540259051332L227.390625,149.82396302070026L227.8546875,149.37642745622728L228.31875,149.520896789126L228.7828125,149.48605218947225L229.24687500000002,149.47786529463704L229.7109375,149.3849605333562L230.175,149.5033565066311L230.63906250000002,149.67730395172853L231.10312499999998,149.53499608740103L231.5671875,149.8291775921651L232.03125,149.95580796854458L232.49531249999998,149.98697942618585L232.959375,149.82814191281233L233.4234375,149.93141208607366L233.8875,150.07473183955793L234.3515625,150.1580260180223L234.815625,149.8535084293209L235.2796875,149.93640523312524L235.74375,149.9099179219561L236.20781250000002,149.84143944450364L236.671875,149.75763762626434L237.1359375,149.94870757819496L237.60000000000002,149.83871468684842L238.0640625,149.65031232033235L238.52812500000002,149.59146339688635L238.99218749999997,149.67158661536985L239.45624999999998,149.73920792417294L239.9203125,149.799920866536L240.38437499999998,149.844087567715L240.8484375,149.63717181062736L241.3125,149.78226287726932L241.77656249999998,149.04975536802039L242.240625,149.3400702375613L242.7046875,149.81084451330855L243.16875,149.61719844901953L243.6328125,149.9875913480782L244.096875,149.7189459322684L244.5609375,149.89382090084513L245.025,149.98136356663113L245.48906250000002,150.08816045804414L245.953125,149.9205985156959L246.4171875,149.7936027190173L246.88125000000002,149.58792613821979L247.3453125,149.60705032927694L247.80937500000002,149.41431284611167L248.27343750000003,149.44568903563018L248.73749999999998,149.4855595708197L249.2015625,149.39573369635227L249.66562499999998,149.90893796176067L250.1296875,149.93377012887805L250.59375,150.09411055057024L251.05781249999998,150.15913141084476L251.521875,149.61548549179145L251.9859375,149.67962798863744L252.45,149.9913023534199L252.9140625,149.85258492981825L253.378125,149.8381378175642L253.8421875,150.14293658807583L254.30625,150.1747771180031L254.77031250000002,150.05937409371776L255.234375,150.0545241743439" style="fill: none;" fill="none"></path></g><g><path stroke="rgb(0, 119, 187)" stroke-width="2px" d="M23.203125,34.25177040696144L27.84375,57.05759251210834L32.484375,53.68783058423775L37.125,55.198388075921685L41.765625,41.73572303296314L46.40625,34.437319713438605L51.04687499999999,41.06826854261875L55.6875,40.8442597317888L60.328125,36.455045553748384L64.96875,25.051329084605147L69.609375,33.91544325046454L74.25,48.05710232508171L78.890625,40.55664481142771L83.53125,27.090542621550046L88.171875,30.553988623717853L92.8125,19.28798087532322L97.453125,21.575478678738044L102.09374999999999,18.45497887487098L106.73437500000001,19.40230967437427L111.375,46.87193501267554L116.015625,26.512745142674593L120.65625,30.42940952197972L125.296875,12.94951829242045L129.9375,4.8966865729093785L134.578125,5.055571691353302L139.21875,2.3621365176757836L143.85937500000003,13.19573965515947L148.5,4.121936941094923L153.140625,7.610202378201463L157.78125,7.268916749706854L162.421875,-2.0890391640492005" style="fill: none;" fill="none"></path></g></g></g></g><g opacity="0.2"><g><g><g><path stroke="rgb(255, 112, 67)" stroke-width="2px" d="M23.6671875,134.78299223072827L24.13125,138.19078949466348L24.5953125,140.08781534805894L25.059375,140.8010248672217L25.523437499999996,141.5885032452643L25.9875,141.35249595344067L26.4515625,142.81945015490055L26.915625,143.59662660118192L27.3796875,143.34209165722132L27.84375,139.7322186101228L28.3078125,142.22803157474846L28.771875,142.74573517218232L29.2359375,144.24600931070745L29.700000000000003,144.20364190544933L30.1640625,142.9777590064332L30.628125,143.56604637298733L31.092187499999998,142.82485374435782L31.55625,142.4726973026991L32.0203125,145.19106710515916L32.484375,140.13968519121408L32.9484375,141.99945792742074L33.4125,142.72445709630847L33.8765625,144.29282503388822L34.340625,142.58002152387053L34.8046875,143.94781458377838L35.268750000000004,143.6678136996925L35.7328125,141.71513977646828L36.196875,142.4601023895666L36.660937499999996,144.51979309972376L37.125,143.56399159133434L37.589062500000004,143.55314072873443L38.053124999999994,144.68706452473998L38.5171875,143.6907212594524L38.98125,145.8524290351197L39.4453125,144.2010052241385L39.909375000000004,144.8168940860778L40.373437499999994,144.69106693938375L40.8375,144.54519310221076L41.3015625,144.514523033984L41.765625,145.122898302041L42.229687500000004,144.34363163262606L42.693749999999994,146.1896769767627L43.1578125,142.05655167996883L43.621875,143.85609945002943L44.0859375,146.16383354365826L44.550000000000004,144.89084726851434L45.014062499999994,146.89149247203022L45.478125,141.1397325033322L45.9421875,142.82142333872616L46.40625,145.74052462074906L46.8703125,144.8356360355392L47.334375,144.36176695581526L47.7984375,145.66149094328284L48.2625,145.8943983418867L48.7265625,145.64663107227534L49.190625,143.8157752873376L49.6546875,145.71365750581026L50.11875,146.02866550628096L50.5828125,146.48510561976582L51.04687499999999,143.86253908462822L51.5109375,144.4991875877604L51.975,144.4939109282568L52.4390625,146.0066851945594L52.903125,144.00242496002465L53.36718750000001,146.0859999312088L53.83125,144.48843398317695L54.2953125,145.89697980042547L54.759375,143.87833939120173L55.2234375,145.5410616165027L55.6875,144.57823774963617L56.1515625,144.70911654364318L56.615625,144.77468905225396L57.0796875,141.13297884073108L57.54375,144.8940246384591L58.0078125,145.51213147770613L58.471875,144.05211886111647L58.9359375,144.67252939660102L59.400000000000006,143.46613436657935L59.864062499999996,145.70438832230866L60.328125,146.08314730413258L60.7921875,145.10670896340162L61.25625,145.30531395412982L61.720312500000006,145.33713628258556L62.184374999999996,145.6427621813491L62.6484375,146.24454698245972L63.1125,144.3296297751367L63.5765625,146.49435007665306L64.040625,145.77165048290044L64.5046875,145.4572705384344L64.96875,144.46617838181555L65.4328125,146.16204580944031L65.896875,146.07174338959157L66.3609375,145.21241606399417L66.825,146.79597026389092L67.2890625,145.38076309673488L67.753125,143.99672382697463L68.2171875,145.2910227952525L68.68125,145.27794901002198L69.1453125,144.84472389053553L69.609375,146.30246660392731L70.0734375,145.7094325516373L70.53750000000001,145.6431850064546L71.0015625,141.87924042530358L71.465625,147.3324265256524L71.92968750000001,146.8275989005342L72.39375,146.24908843729645L72.8578125,144.30642055068165L73.32187499999999,144.90478483680636L73.7859375,146.9393335254863L74.25,147.3862102087587L74.7140625,147.70411204732955L75.17812500000001,145.24960571620613L75.6421875,147.16345967911184L76.10624999999999,147.51934489421546L76.5703125,146.09168128296733L77.034375,146.42541804537177L77.4984375,145.1481713745743L77.9625,145.9491422418505L78.4265625,147.58309422712773L78.890625,145.92564701288939L79.3546875,143.91570872347802L79.81875000000001,145.01369156129658L80.2828125,145.83902556169778L80.74687499999999,146.6371652316302L81.2109375,147.20396929141134L81.675,145.72457925137132L82.1390625,145.83201062120497L82.603125,147.37577475327998L83.0671875,146.75103870872408L83.53125,146.6222864035517L83.99531250000001,148.00353527488187L84.45937500000001,146.55527727864683L84.92343749999999,144.03227904997766L85.38749999999999,146.85006715077907L85.8515625,146.7994732009247L86.315625,146.63205259200186L86.7796875,145.16332631651312L87.24375,145.98925540409982L87.7078125,147.63472834322602L88.171875,145.57015659939498L88.63593750000001,146.80653759464622L89.10000000000001,146.80337093956769L89.56406249999999,147.63790241628885L90.02812499999999,146.4490896575153L90.4921875,146.82455505430698L90.95625,146.84162383619696L91.4203125,146.46515041776001L91.884375,145.4126554839313L92.3484375,147.25969813484699L92.8125,146.03834267891943L93.27656250000001,145.89406865369529L93.740625,148.26978362817317L94.20468749999999,146.87061002198607L94.66875,147.47127882856876L95.1328125,145.8633384173736L95.596875,145.88771226536483L96.0609375,147.3260412896052L96.525,146.02242286037654L96.9890625,147.58826208952814L97.453125,146.4042215673253L97.91718750000001,143.71319363079965L98.38125,146.34590384736657L98.84531249999999,144.96009332779795L99.309375,147.31958929169923L99.7734375,146.78092164639384L100.2375,145.2019361006096L100.70156250000001,145.25730063859373L101.165625,143.85384850390255L101.6296875,148.25937660830095L102.09374999999999,146.66247456986457L102.5578125,148.6754299183376L103.021875,146.5647121304646L103.48593749999999,146.84495698381215L103.95,147.81406800448895L104.4140625,147.63154520373791L104.878125,147.36391834169626L105.34218750000001,146.6333837080747L105.80625,147.06156954355538L106.2703125,147.16805800516158L106.73437500000001,146.00982052925974L107.1984375,146.83857998996973L107.6625,143.64541303552687L108.12656249999999,148.0245528970845L108.590625,147.33159241452813L109.0546875,147.7518541943282L109.51875,146.28650310169905L109.98281250000001,146.31750533077866L110.446875,147.04620772227645L110.91093749999999,147.7394092893228L111.375,147.54821239225566L111.8390625,146.31297046970576L112.303125,147.66112812515348L112.7671875,147.35696109663695L113.23125,146.1273420061916L113.6953125,147.55050537362695L114.159375,146.99768339004368L114.62343750000001,148.40214601904154L115.0875,147.11014662589878L115.55156249999999,147.43471558392048L116.015625,147.75414799991995L116.4796875,146.9816704345867L116.94375,148.3125499561429L117.4078125,147.83199479989707L117.871875,147.71541540697217L118.3359375,147.12650410551578L118.80000000000001,147.59455501288176L119.26406250000001,147.5494973519817L119.72812499999999,148.21154338493943L120.19218749999999,146.80241896491498L120.65625,145.90008381474763L121.1203125,147.9934089020826L121.584375,147.29533001035452L122.0484375,147.68211113009602L122.5125,147.59486986510456L122.9765625,147.48300254065543L123.44062500000001,147.23611883539706L123.90468750000001,147.41256465855986L124.36874999999999,147.33028602506965L124.83281249999999,146.16406102851033L125.296875,147.29891042411327L125.7609375,146.68474253453314L126.225,146.25816969852895L126.6890625,148.63492689980194L127.153125,146.33057911600918L127.6171875,148.23388346889988L128.08125,147.92756316438317L128.5453125,144.53440323192626L129.009375,147.18956603854895L129.47343750000002,146.2107152044773L129.9375,146.96479699295014L130.4015625,148.18465731292963L130.865625,147.7695205360651L131.3296875,148.2111044875346L131.79375,147.2123227659613L132.2578125,148.37090559024364L132.721875,148.08658084552735L133.1859375,147.9244096968323L133.65,147.88130626268685L134.11406250000002,147.00695834308863L134.578125,147.46119613945484L135.04218749999998,149.0558394016698L135.50625,146.8576301978901L135.9703125,148.69015049608424L136.434375,148.3073610761203L136.8984375,146.3486443804577L137.3625,148.09018681012094L137.8265625,146.6094038374722L138.290625,148.9907873882912L138.75468750000002,148.82522910553962L139.21875,147.49134200345725L139.6828125,147.94960941374302L140.146875,147.34718831442297L140.6109375,148.57521995622665L141.07500000000002,147.40769269131124L141.5390625,147.55928579438478L142.003125,147.68419888056815L142.46718750000002,147.27682049106807L142.93125,148.36130259744823L143.39531250000002,146.7482231715694L143.85937500000003,147.52510784380138L144.32343749999998,146.6022578459233L144.7875,147.30631851777434L145.25156249999998,147.9094772944227L145.715625,148.4159203916788L146.1796875,147.59900085814297L146.64374999999998,148.10325935902074L147.1078125,148.96340637188405L147.571875,145.81035917345434L148.0359375,147.53470094595104L148.5,148.15370783396065L148.9640625,147.0406071441248L149.428125,148.4267774359323L149.8921875,148.15189083991572L150.35625000000002,148.39947966579348L150.8203125,146.59256006777287L151.284375,148.50201887497678L151.74843750000002,148.99296951200813L152.21249999999998,147.56104220822453L152.6765625,146.5296819359064L153.140625,147.4303562818095L153.60468749999998,148.71597002679482L154.06875,148.2954840590246L154.5328125,147.07606263644993L154.996875,147.855305403471L155.4609375,148.44409801717848L155.925,149.16503831231967L156.3890625,147.3668154766783L156.853125,149.04359890334308L157.3171875,148.5801520915702L157.78125,147.09883584827185L158.2453125,147.37034643720835L158.709375,147.9902269989252L159.1734375,148.0776500045322L159.63750000000002,148.5882080225274L160.1015625,148.16648242715746L160.565625,149.03209360968322L161.02968750000002,148.50720528233796L161.49374999999998,147.58806922193617L161.9578125,149.30430313758552L162.421875,148.93266418436542L162.88593749999998,148.3049201471731L163.35,148.20135189872235L163.8140625,148.58515552198514L164.278125,148.4035352426581L164.7421875,148.31305520329624L165.20625,146.6523440759629L165.6703125,148.8383309142664L166.134375,147.36874827370048L166.59843750000002,148.58502447092906L167.0625,148.70436417823657L167.5265625,148.67870825529099L167.99062500000002,148.28442631708458L168.4546875,148.99068353651091L168.91875000000002,148.38245209492743L169.38281249999997,149.2128979107365L169.84687499999998,148.12959361542016L170.3109375,149.33627423783764L170.77499999999998,147.99485499691218L171.2390625,148.45695091132075L171.703125,149.11623992677778L172.16718749999998,148.27887065894902L172.63125,148.88932255050167L173.0953125,149.10543934162706L173.559375,148.00619833124802L174.0234375,149.39733619987965L174.4875,148.05620255135L174.9515625,149.55740228947252L175.415625,148.5969513533637L175.87968750000002,149.020784068387L176.34375,149.37876527616754L176.8078125,148.28112861094996L177.27187500000002,148.75760882114992L177.7359375,149.59406814957038L178.20000000000002,148.4892698326148L178.66406250000003,149.03071798570454L179.12812499999998,147.80034720618278L179.5921875,148.82186463754624L180.05624999999998,148.70506105665118L180.5203125,149.34882876416668L180.984375,149.55324368504807L181.44843749999998,148.00296944752336L181.9125,149.23335382668301L182.3765625,147.46651071310043L182.840625,149.05747012188658L183.3046875,149.07251750305295L183.76875,148.94290429959074L184.2328125,149.2461795215495L184.696875,148.88379161898047L185.16093750000002,149.73902998678386L185.625,148.67105825291947L186.0890625,149.27240827772766L186.55312500000002,149.32461440283805L187.01718749999998,149.99561105808243L187.48125,149.20705130277202L187.9453125,149.0412618261762L188.40937499999998,149.05486063985154L188.8734375,148.8579605491832L189.3375,148.3733494039625L189.8015625,148.92771597672254L190.265625,149.22194826370105L190.7296875,150.0201617013663L191.19375,149.3857324118726L191.6578125,149.59245885908604L192.121875,148.17766339005902L192.5859375,149.19527195580304L193.05,149.88686876557767L193.5140625,149.38669221661985L193.978125,149.2373269814998L194.44218750000002,149.85021197190508L194.90625,148.88137994986027L195.3703125,148.42501978576183L195.83437500000002,149.4602646091953L196.29843749999998,149.5283456328325L196.7625,149.7912628990598L197.2265625,149.04515832848847L197.69062499999998,149.3315353821963L198.1546875,147.84557712916285L198.61875,150.3310304665938L199.0828125,149.69455340132117L199.546875,149.0336245992221L200.0109375,149.6978259687312L200.475,148.1518727070652L200.9390625,149.62864873185754L201.40312500000002,149.81705893948674L201.8671875,148.27709075482562L202.33125,148.53844942012802L202.79531250000002,148.97830745391548L203.259375,149.31165930535644L203.72343750000002,150.47594449901953L204.18749999999997,149.54013857943937L204.65156249999998,148.8753623161465L205.115625,148.34286190057173L205.57968749999998,148.845066444017L206.04375,150.43490326451138L206.5078125,149.02232494857162L206.97187499999998,150.02947003534064L207.4359375,149.30062999902293L207.9,149.6160962660797L208.3640625,149.53312858426943L208.828125,149.14481606287882L209.2921875,148.5234844610095L209.75625,149.19123574811965L210.2203125,149.28984342562035L210.68437500000002,150.29318720754236L211.1484375,149.8319699121639L211.6125,150.0529310591519L212.07656250000002,149.846922095865L212.540625,149.11749068135396L213.00468750000002,150.2431413643062L213.46875000000003,148.43933814391494L213.93281249999998,150.0885027665645L214.396875,149.52118521742523L214.86093749999998,149.754066653084L215.325,150.10474774008617L215.7890625,149.72173866536468L216.25312499999998,149.75234362017363L216.7171875,150.21017666626722L217.18125,148.99274202715605L217.6453125,150.0858108624816L218.109375,148.5114393029362L218.5734375,150.14278221828863L219.0375,149.86069894116372L219.5015625,149.24984112102538L219.96562500000002,149.86594345606863L220.4296875,148.85548747563735L220.89375,148.47202837653458L221.35781250000002,149.1009123106487L221.82187499999998,149.37763526989147L222.2859375,149.9046579161659L222.75,149.8474392942153L223.21406249999998,149.1271769204177L223.678125,149.771595350001L224.1421875,149.11604747129604L224.60625,149.45453792531043L225.0703125,149.97126317303628L225.534375,149.2220348068513L225.9984375,149.6500434349291L226.4625,149.2266401387751L226.9265625,149.76459895446897L227.390625,150.2268036659807L227.8546875,148.70512410951778L228.31875,149.73760078847408L228.7828125,149.43378528999165L229.24687500000002,149.46558495238423L229.7109375,149.245603391435L230.175,149.68095046654344L230.63906250000002,149.9382251193747L231.10312499999998,149.32153429090977L231.5671875,150.27044984931126L232.03125,150.14575353311375L232.49531249999998,150.03373661264777L232.959375,149.58988564275205L233.4234375,150.08631734596565L233.8875,150.28971146978438L234.3515625,150.28296728571877L234.815625,149.39673204626888L235.2796875,150.06075043883175L235.74375,149.87018695520237L236.20781250000002,149.7387217283249L236.671875,149.63193489890546L237.1359375,150.23531250609085L237.60000000000002,149.6737253498286L238.0640625,149.36770877055824L238.52812500000002,149.50319001171738L238.99218749999997,149.79177144309506L239.45624999999998,149.84063988737762L239.9203125,149.8909902800806L240.38437499999998,149.91033761948347L240.8484375,149.32679817499593L241.3125,149.99989947723225L241.77656249999998,147.95099410414696L242.240625,149.7755425418727L242.7046875,150.51700592692941L243.16875,149.32672935258597L243.6328125,150.54318069666624L244.096875,149.31597780855373L244.5609375,150.15613335371017L245.025,150.11267756531015L245.48906250000002,150.24835579516366L245.953125,149.6692556021735L246.4171875,149.60310902399942L246.88125000000002,149.27941126702353L247.3453125,149.6357366158627L247.80937500000002,149.12520662136376L248.27343750000003,149.49275331990793L248.73749999999998,149.545365373604L249.2015625,149.26099488465115L249.66562499999998,150.67874435987324L250.1296875,149.97101837955415L250.59375,150.33462118310854L251.05781249999998,150.25666270125657L251.521875,148.80001661321148L251.9859375,149.77584173390642L252.45,150.45881390059367L252.9140625,149.64450879441574L253.378125,149.81646714918315L253.8421875,150.60013474384323L254.30625,150.22253791289404L254.77031250000002,149.88626955728978L255.234375,150.0472492952831" style="fill: none;" fill="none"></path></g><g><path stroke="rgb(0, 119, 187)" stroke-width="2px" d="M23.203125,34.25177040696144L27.84375,70.74108577519655L32.484375,50.45285913348198L37.125,56.97480368614197L41.765625,24.158867552876472L46.40625,24.341000497341156L51.04687499999999,50.55063146352768L55.6875,40.5176527351141L60.328125,29.981807202100754L64.96875,8.118139162659645L69.609375,47.131217636168L74.25,69.19263265281916L78.890625,29.33044883608818L83.53125,6.917770832777023L88.171875,35.74508647620678L92.8125,2.396914914250374L97.453125,25.00575739145279L102.09374999999999,13.775021463632584L106.73437500000001,20.82316155731678L111.375,88.07386218756437L116.015625,-4.024923115968704L120.65625,36.30427721142769L125.296875,-13.269973441958427L129.9375,-7.182465612888336L134.578125,5.293898239731789L139.21875,-1.6780047565698624L143.85937500000003,29.446116641163826L148.5,-9.488753199577332L153.140625,12.84259732067585L157.78125,6.756988495588303L162.421875,-16.12596993148327" style="fill: none;" fill="none"></path></g></g></g></g></g></g><g transform="translate(51, 177)" clip-path="url(#clip_1)"><clipPath id="clip_1"><rect width="278" height="23"></rect></clipPath><g><g><line x1="0" y1="0" x2="0" y2="5" style="visibility: inherit;" fill="rgb(0, 0, 0)" stroke="rgb(204, 204, 204)" stroke-width="1px"></line><line x1="23.203125" y1="0" x2="23.203125" y2="5" style="visibility: inherit;" fill="rgb(0, 0, 0)" stroke="rgb(204, 204, 204)" stroke-width="1px"></line><line x1="46.40625" y1="0" x2="46.40625" y2="5" style="visibility: inherit;" fill="rgb(0, 0, 0)" stroke="rgb(204, 204, 204)" stroke-width="1px"></line><line x1="69.609375" y1="0" x2="69.609375" y2="5" style="visibility: inherit;" fill="rgb(0, 0, 0)" stroke="rgb(204, 204, 204)" stroke-width="1px"></line><line x1="92.8125" y1="0" x2="92.8125" y2="5" style="visibility: inherit;" fill="rgb(0, 0, 0)" stroke="rgb(204, 204, 204)" stroke-width="1px"></line><line x1="116.015625" y1="0" x2="116.015625" y2="5" style="visibility: inherit;" fill="rgb(0, 0, 0)" stroke="rgb(204, 204, 204)" stroke-width="1px"></line><line x1="139.21875" y1="0" x2="139.21875" y2="5" style="visibility: inherit;" fill="rgb(0, 0, 0)" stroke="rgb(204, 204, 204)" stroke-width="1px"></line><line x1="162.421875" y1="0" x2="162.421875" y2="5" style="visibility: inherit;" fill="rgb(0, 0, 0)" stroke="rgb(204, 204, 204)" stroke-width="1px"></line><line x1="185.625" y1="0" x2="185.625" y2="5" style="visibility: inherit;" fill="rgb(0, 0, 0)" stroke="rgb(204, 204, 204)" stroke-width="1px"></line><line x1="208.828125" y1="0" x2="208.828125" y2="5" style="visibility: inherit;" fill="rgb(0, 0, 0)" stroke="rgb(204, 204, 204)" stroke-width="1px"></line><line x1="232.03125" y1="0" x2="232.03125" y2="5" style="visibility: inherit;" fill="rgb(0, 0, 0)" stroke="rgb(204, 204, 204)" stroke-width="1px"></line><line x1="255.234375" y1="0" x2="255.234375" y2="5" style="visibility: inherit;" fill="rgb(0, 0, 0)" stroke="rgb(204, 204, 204)" stroke-width="1px"></line><line x1="278.4375" y1="0" x2="278.4375" y2="5" style="visibility: inherit;" fill="rgb(0, 0, 0)" stroke="rgb(204, 204, 204)" stroke-width="1px"></line></g><g transform="translate(0, 8)"><text x="0" y="0" dx="0em" dy="0.95em" style="text-anchor: middle; visibility: hidden; font-family: Roboto, sans-serif; font-size: 12px; font-weight: 200;" fill="rgb(33, 33, 33)" stroke="none" stroke-width="1px">-5k</text><text x="23.203125" y="0" dx="0em" dy="0.95em" style="text-anchor: middle; visibility: inherit; font-family: Roboto, sans-serif; font-size: 12px; font-weight: 200;" fill="rgb(33, 33, 33)" stroke="none" stroke-width="1px">0</text><text x="46.40625" y="0" dx="0em" dy="0.95em" style="text-anchor: middle; visibility: hidden; font-family: Roboto, sans-serif; font-size: 12px; font-weight: 200;" fill="rgb(33, 33, 33)" stroke="none" stroke-width="1px">5k</text><text x="69.609375" y="0" dx="0em" dy="0.95em" style="text-anchor: middle; visibility: inherit; font-family: Roboto, sans-serif; font-size: 12px; font-weight: 200;" fill="rgb(33, 33, 33)" stroke="none" stroke-width="1px">10k</text><text x="92.8125" y="0" dx="0em" dy="0.95em" style="text-anchor: middle; visibility: hidden; font-family: Roboto, sans-serif; font-size: 12px; font-weight: 200;" fill="rgb(33, 33, 33)" stroke="none" stroke-width="1px">15k</text><text x="116.015625" y="0" dx="0em" dy="0.95em" style="text-anchor: middle; visibility: inherit; font-family: Roboto, sans-serif; font-size: 12px; font-weight: 200;" fill="rgb(33, 33, 33)" stroke="none" stroke-width="1px">20k</text><text x="139.21875" y="0" dx="0em" dy="0.95em" style="text-anchor: middle; visibility: hidden; font-family: Roboto, sans-serif; font-size: 12px; font-weight: 200;" fill="rgb(33, 33, 33)" stroke="none" stroke-width="1px">25k</text><text x="162.421875" y="0" dx="0em" dy="0.95em" style="text-anchor: middle; visibility: inherit; font-family: Roboto, sans-serif; font-size: 12px; font-weight: 200;" fill="rgb(33, 33, 33)" stroke="none" stroke-width="1px">30k</text><text x="185.625" y="0" dx="0em" dy="0.95em" style="text-anchor: middle; visibility: hidden; font-family: Roboto, sans-serif; font-size: 12px; font-weight: 200;" fill="rgb(33, 33, 33)" stroke="none" stroke-width="1px">35k</text><text x="208.828125" y="0" dx="0em" dy="0.95em" style="text-anchor: middle; visibility: inherit; font-family: Roboto, sans-serif; font-size: 12px; font-weight: 200;" fill="rgb(33, 33, 33)" stroke="none" stroke-width="1px">40k</text><text x="232.03125" y="0" dx="0em" dy="0.95em" style="text-anchor: middle; visibility: hidden; font-family: Roboto, sans-serif; font-size: 12px; font-weight: 200;" fill="rgb(33, 33, 33)" stroke="none" stroke-width="1px">45k</text><text x="255.234375" y="0" dx="0em" dy="0.95em" style="text-anchor: middle; visibility: inherit; font-family: Roboto, sans-serif; font-size: 12px; font-weight: 200;" fill="rgb(33, 33, 33)" stroke="none" stroke-width="1px">50k</text><text x="278.4375" y="0" dx="0em" dy="0.95em" style="text-anchor: middle; visibility: hidden; font-family: Roboto, sans-serif; font-size: 12px; font-weight: 200;" fill="rgb(33, 33, 33)" stroke="none" stroke-width="1px">55k</text></g><line x1="0" y1="0" x2="278.4375" y2="0" fill="rgb(0, 0, 0)" stroke="rgb(204, 204, 204)" stroke-width="1px"></line></g></g></g></g></svg>