<svg viewBox="0 0 330 200" xmlns="http://www.w3.org/2000/svg"><g><g><g><g><g><line x1="61.953125" y1="177" x2="56.953125" y2="177" style="visibility: inherit;" fill="rgb(0, 0, 0)" stroke="rgb(204, 204, 204)" stroke-width="1px"></line><line x1="61.953125" y1="160.9090909090909" x2="56.953125" y2="160.9090909090909" style="visibility: inherit;" fill="rgb(0, 0, 0)" stroke="rgb(204, 204, 204)" stroke-width="1px"></line><line x1="61.953125" y1="144.8181818181818" x2="56.953125" y2="144.8181818181818" style="visibility: inherit;" fill="rgb(0, 0, 0)" stroke="rgb(204, 204, 204)" stroke-width="1px"></line><line x1="61.953125" y1="128.72727272727272" x2="56.953125" y2="128.72727272727272" style="visibility: inherit;" fill="rgb(0, 0, 0)" stroke="rgb(204, 204, 204)" stroke-width="1px"></line><line x1="61.953125" y1="112.63636363636365" x2="56.953125" y2="112.63636363636365" style="visibility: inherit;" fill="rgb(0, 0, 0)" stroke="rgb(204, 204, 204)" stroke-width="1px"></line><line x1="61.953125" y1="96.54545454545453" x2="56.953125" y2="96.54545454545453" style="visibility: inherit;" fill="rgb(0, 0, 0)" stroke="rgb(204, 204, 204)" stroke-width="1px"></line><line x1="61.953125" y1="80.45454545454547" x2="56.953125" y2="80.45454545454547" style="visibility: inherit;" fill="rgb(0, 0, 0)" stroke="rgb(204, 204, 204)" stroke-width="1px"></line><line x1="61.953125" y1="64.36363636363639" x2="56.953125" y2="64.36363636363639" style="visibility: inherit;" fill="rgb(0, 0, 0)" stroke="rgb(204, 204, 204)" stroke-width="1px"></line><line x1="61.953125" y1="48.272727272727266" x2="56.953125" y2="48.272727272727266" style="visibility: inherit;" fill="rgb(0, 0, 0)" stroke="rgb(204, 204, 204)" stroke-width="1px"></line><line x1="61.953125" y1="32.181818181818194" x2="56.953125" y2="32.181818181818194" style="visibility: inherit;" fill="rgb(0, 0, 0)" stroke="rgb(204, 204, 204)" stroke-width="1px"></line><line x1="61.953125" y1="16.090909090909097" x2="56.953125" y2="16.090909090909097" style="visibility: inherit;" fill="rgb(0, 0, 0)" stroke="rgb(204, 204, 204)" stroke-width="1px"></line><line x1="61.953125" y1="0" x2="56.953125" y2="0" style="visibility: inherit;" fill="rgb(0, 0, 0)" stroke="rgb(204, 204, 204)" stroke-width="1px"></line></g><g transform="translate(51.953125, 0)"><text x="0" y="177" dx="0em" dy="0.3em" style="text-anchor: end; visibility: hidden; font-family: Roboto, sans-serif; font-size: 12px; font-weight: 200;" fill="rgb(33, 33, 33)" stroke="none" stroke-width="1px">0.01</text><text x="0" y="160.9090909090909" dx="0em" dy="0.3em" style="text-anchor: end; visibility: inherit; font-family: Roboto, sans-serif; font-size: 12px; font-weight: 200;" fill="rgb(33, 33, 33)" stroke="none" stroke-width="1px">0.015</text><text x="0" y="144.8181818181818" dx="0em" dy="0.3em" style="text-anchor: end; visibility: hidden; font-family: Roboto, sans-serif; font-size: 12px; font-weight: 200;" fill="rgb(33, 33, 33)" stroke="none" stroke-width="1px">0.02</text><text x="0" y="128.72727272727272" dx="0em" dy="0.3em" style="text-anchor: end; visibility: inherit; font-family: Roboto, sans-serif; font-size: 12px; font-weight: 200;" fill="rgb(33, 33, 33)" stroke="none" stroke-width="1px">0.025</text><text x="0" y="112.63636363636365" dx="0em" dy="0.3em" style="text-anchor: end; visibility: hidden; font-family: Roboto, sans-serif; font-size: 12px; font-weight: 200;" fill="rgb(33, 33, 33)" stroke="none" stroke-width="1px">0.03</text><text x="0" y="96.54545454545453" dx="0em" dy="0.3em" style="text-anchor: end; visibility: inherit; font-family: Roboto, sans-serif; font-size: 12px; font-weight: 200;" fill="rgb(33, 33, 33)" stroke="none" stroke-width="1px">0.035</text><text x="0" y="80.45454545454547" dx="0em" dy="0.3em" style="text-anchor: end; visibility: hidden; font-family: Roboto, sans-serif; font-size: 12px; font-weight: 200;" fill="rgb(33, 33, 33)" stroke="none" stroke-width="1px">0.04</text><text x="0" y="64.36363636363639" dx="0em" dy="0.3em" style="text-anchor: end; visibility: inherit; font-family: Roboto, sans-serif; font-size: 12px; font-weight: 200;" fill="rgb(33, 33, 33)" stroke="none" stroke-width="1px">0.045</text><text x="0" y="48.272727272727266" dx="0em" dy="0.3em" style="text-anchor: end; visibility: hidden; font-family: Roboto, sans-serif; font-size: 12px; font-weight: 200;" fill="rgb(33, 33, 33)" stroke="none" stroke-width="1px">0.05</text><text x="0" y="32.181818181818194" dx="0em" dy="0.3em" style="text-anchor: end; visibility: inherit; font-family: Roboto, sans-serif; font-size: 12px; font-weight: 200;" fill="rgb(33, 33, 33)" stroke="none" stroke-width="1px">0.055</text><text x="0" y="16.090909090909097" dx="0em" dy="0.3em" style="text-anchor: end; visibility: hidden; font-family: Roboto, sans-serif; font-size: 12px; font-weight: 200;" fill="rgb(33, 33, 33)" stroke="none" stroke-width="1px">0.06</text><text x="0" y="0" dx="0em" dy="0.3em" style="text-anchor: end; visibility: hidden; font-family: Roboto, sans-serif; font-size: 12px; font-weight: 200;" fill="rgb(33, 33, 33)" stroke="none" stroke-width="1px">0.065</text></g><line x1="61.953125" y1="0" x2="61.953125" y2="177" fill="rgb(0, 0, 0)" stroke="rgb(204, 204, 204)" stroke-width="1px"></line></g></g><g transform="translate(61, 0)" clip-path="url(#clip_0)"><clipPath id="clip_0"><rect width="268" height="177"></rect></clipPath><g><g><g><line x1="0" y1="0" x2="0" y2="177" fill="rgb(0, 0, 0)" stroke="rgb(66, 66, 66)" stroke-width="1px" opacity="0.25"></line><line x1="22.337239583333332" y1="0" x2="22.337239583333332" y2="177" fill="rgb(0, 0, 0)" stroke="rgb(66, 66, 66)" stroke-width="1px" opacity="0.25"></line><line x1="44.674479166666664" y1="0" x2="44.674479166666664" y2="177" fill="rgb(0, 0, 0)" stroke="rgb(66, 66, 66)" stroke-width="1px" opacity="0.25"></line><line x1="67.01171875" y1="0" x2="67.01171875" y2="177" fill="rgb(0, 0, 0)" stroke="rgb(66, 66, 66)" stroke-width="1px" opacity="0.25"></line><line x1="89.34895833333333" y1="0" x2="89.34895833333333" y2="177" fill="rgb(0, 0, 0)" stroke="rgb(66, 66, 66)" stroke-width="1px" opacity="0.25"></line><line x1="111.68619791666667" y1="0" x2="111.68619791666667" y2="177" fill="rgb(0, 0, 0)" stroke="rgb(66, 66, 66)" stroke-width="1px" opacity="0.25"></line><line x1="134.0234375" y1="0" x2="134.0234375" y2="177" fill="rgb(0, 0, 0)" stroke="rgb(66, 66, 66)" stroke-width="1px" opacity="0.25"></line><line x1="156.36067708333334" y1="0" x2="156.36067708333334" y2="177" fill="rgb(0, 0, 0)" stroke="rgb(66, 66, 66)" stroke-width="1px" opacity="0.25"></line><line x1="178.69791666666666" y1="0" x2="178.69791666666666" y2="177" fill="rgb(0, 0, 0)" stroke="rgb(66, 66, 66)" stroke-width="1px" opacity="0.25"></line><line x1="201.03515625" y1="0" x2="201.03515625" y2="177" fill="rgb(0, 0, 0)" stroke="rgb(66, 66, 66)" stroke-width="1px" opacity="0.25"></line><line x1="223.37239583333334" y1="0" x2="223.37239583333334" y2="177" fill="rgb(0, 0, 0)" stroke="rgb(66, 66, 66)" stroke-width="1px" opacity="0.25"></line><line x1="245.70963541666666" y1="0" x2="245.70963541666666" y2="177" fill="rgb(0, 0, 0)" stroke="rgb(66, 66, 66)" stroke-width="1px" opacity="0.25"></line><line x1="268.046875" y1="0" x2="268.046875" y2="177" fill="rgb(0, 0, 0)" stroke="rgb(66, 66, 66)" stroke-width="1px" opacity="0.25"></line></g><g><line x1="0" y1="177" x2="268.046875" y2="177" fill="rgb(0, 0, 0)" stroke="rgb(66, 66, 66)" stroke-width="1px" opacity="0.25"></line><line x1="0" y1="160.9090909090909" x2="268.046875" y2="160.9090909090909" fill="rgb(0, 0, 0)" stroke="rgb(66, 66, 66)" stroke-width="1px" opacity="0.25"></line><line x1="0" y1="144.8181818181818" x2="268.046875" y2="144.8181818181818" fill="rgb(0, 0, 0)" stroke="rgb(66, 66, 66)" stroke-width="1px" opacity="0.25"></line><line x1="0" y1="128.72727272727272" x2="268.046875" y2="128.72727272727272" fill="rgb(0, 0, 0)" stroke="rgb(66, 66, 66)" stroke-width="1px" opacity="0.25"></line><line x1="0" y1="112.63636363636365" x2="268.046875" y2="112.63636363636365" fill="rgb(0, 0, 0)" stroke="rgb(66, 66, 66)" stroke-width="1px" opacity="0.25"></line><line x1="0" y1="96.54545454545453" x2="268.046875" y2="96.54545454545453" fill="rgb(0, 0, 0)" stroke="rgb(66, 66, 66)" stroke-width="1px" opacity="0.25"></line><line x1="0" y1="80.45454545454547" x2="268.046875" y2="80.45454545454547" fill="rgb(0, 0, 0)" stroke="rgb(66, 66, 66)" stroke-width="1px" opacity="0.25"></line><line x1="0" y1="64.36363636363639" x2="268.046875" y2="64.36363636363639" fill="rgb(0, 0, 0)" stroke="rgb(66, 66, 66)" stroke-width="1px" opacity="0.25"></line><line x1="0" y1="48.272727272727266" x2="268.046875" y2="48.272727272727266" fill="rgb(0, 0, 0)" stroke="rgb(66, 66, 66)" stroke-width="1px" opacity="0.25"></line><line x1="0" y1="32.181818181818194" x2="268.046875" y2="32.181818181818194" fill="rgb(0, 0, 0)" stroke="rgb(66, 66, 66)" stroke-width="1px" opacity="0.25"></line><line x1="0" y1="16.090909090909097" x2="268.046875" y2="16.090909090909097" fill="rgb(0, 0, 0)" stroke="rgb(66, 66, 66)" stroke-width="1px" opacity="0.25"></line><line x1="0" y1="0" x2="268.046875" y2="0" fill="rgb(0, 0, 0)" stroke="rgb(66, 66, 66)" stroke-width="1px" opacity="0.25"></line></g></g></g><g><g><line x1="0" y1="209.1818181818182" x2="268.046875" y2="209.1818181818182" fill="rgb(0, 0, 0)" stroke="rgb(153, 153, 153)" stroke-width="1.5px"></line></g></g><g><g><line x1="22.337239583333332" y1="0" x2="22.337239583333332" y2="177" fill="rgb(0, 0, 0)" stroke="rgb(153, 153, 153)" stroke-width="1.5px"></line></g></g><g><g><g><g><g><path stroke="rgb(255, 112, 67)" stroke-width="2px" d="M27.251432291666667,-16.69001923781929L27.698177083333334,3.0158586693036185L28.144921874999998,6.729648022792351L28.59166666666667,20.424483865115977L29.038411458333336,29.74840050921692L29.48515625,20.099393599724873L29.931901041666666,31.193109373993753L30.378645833333334,-19.979203912962525L30.825390625,10.24896428867453L31.272135416666668,-18.663994360690655L31.71888020833333,6.786916962516374L32.165625,9.262839879928L32.612369791666666,5.661720957942953L33.05911458333333,11.549252660529136L33.505859375,21.66997364755054L33.95260416666667,32.932906859631736L34.399348958333334,17.238486834297802L34.84609375,-2.9685611107494556L35.29283854166666,9.851680386024215L35.739583333333336,36.32445309454421L36.186328125,63.744558902828636L36.63307291666666,59.62945099476281L37.07981770833334,44.64666414123444L37.526562500000004,54.736880683901276L37.973307291666664,66.58716870240572L38.42005208333334,61.07204345726571L38.866796875,71.01261173813562L39.313541666666666,57.357378562387744L39.76028645833333,61.44545713170832L40.20703125,72.33825484244458L40.65377604166667,71.1369980003805L41.10052083333333,80.78406714388913L41.547265625,82.94662568137504L41.99401041666667,53.12529762727868L42.44075520833333,80.24378896072429L42.8875,71.10185858683799L43.33424479166666,90.50715416571623L43.78098958333333,89.12891155636053L44.227734375000004,70.10801165279491L44.674479166666664,78.59814599582869L45.12122395833333,66.85988209660349L45.567968750000006,67.9075870655754L46.014713541666666,74.19401427600923L46.46145833333333,73.56931672282347L46.908203125,82.83777948275012L47.35494791666667,77.18922365286073L47.801692708333334,86.36381898054383L48.2484375,96.0653414103228L48.69518229166667,98.76970160495833L49.14192708333333,70.91054464329646L49.588671875,73.51384336755665L50.03541666666667,79.60057363676272L50.48216145833333,91.6580518009662L50.92890625,71.32896824612604L51.37565104166667,82.15678794670015L51.82239583333333,68.2419970969541L52.269140625,69.16421348475336L52.715885416666666,71.68222598317107L53.16263020833333,63.68419304051791L53.609375,76.60319072774688L54.05611979166667,79.08736131651186L54.502864583333334,82.97223914574106L54.949609374999994,80.11541785002603L55.39635416666667,67.65342289600015L55.843098958333336,72.53856921322L56.289843749999996,79.03056760776877L56.73658854166667,73.67568947273887L57.18333333333334,52.48140558621144L57.630078125,66.26158986808464L58.07682291666667,80.31832973606893L58.52356770833333,80.12737090962725L58.9703125,89.12580402079149L59.41705729166667,77.93891035384055L59.86380208333333,84.22573455113024L60.310546875,90.07604435970369L60.75729166666667,99.66751955519473L61.204036458333334,101.87229585228938L61.65078125,93.67199713607502L62.09752604166666,80.38403428945682L62.544270833333336,71.33314982050722L62.991015624999996,84.09688038659894L63.43776041666666,92.60326857315458L63.88450520833334,93.67685876023582L64.33125,95.81357725265347L64.77799479166667,83.30671504401616L65.22473958333333,84.69349938733902L65.671484375,77.38654921983523L66.11822916666667,80.74821015915181L66.56497395833333,85.22258021719345L67.01171875,82.26027893215851L67.45846354166666,75.85363477094324L67.90520833333333,72.79174059621687L68.351953125,80.39977994502358L68.79869791666667,91.0284925213448L69.24544270833334,96.3991520470972L69.6921875,100.47718812515816L70.13893229166666,87.02885730071247L70.58567708333332,79.43011645134861L71.032421875,97.45970893947771L71.47916666666667,112.9863229440198L71.92591145833333,120.31001557768477L72.37265625,100.9205561998064L72.81940104166667,103.44922547854252L73.26614583333333,101.57239860973029L73.712890625,95.14887742426936L74.15963541666667,83.13496998683777L74.60638020833333,81.34105512938599L75.05312500000001,85.49159479025208L75.49986979166667,100.68965281666154L75.94661458333333,106.80228280524189L76.39335937499999,79.70256033079055L76.84010416666668,86.02427713540386L77.28684895833334,81.74023905187254L77.73359375,89.62035161835686L78.18033854166667,95.69853426240255L78.62708333333333,80.35507793179754L79.07382812499999,81.018506672419L79.52057291666667,92.542741932154L79.96731770833334,100.53682609062213L80.4140625,96.62855643265301L80.86080729166667,112.43980627144542L81.30755208333333,109.59624419089711L81.754296875,87.96878789134573L82.20104166666665,105.23999002356163L82.64778645833334,102.03292277648622L83.09453125,105.06156534939478L83.54127604166666,111.3502602820419L83.98802083333334,104.94522350968583L84.434765625,108.24533130166657L84.88151041666666,91.39420351863721L85.32825520833335,99.62036445210684L85.775,104.15810698442753L86.22174479166667,110.35024716632152L86.66848958333333,108.78774843429565L87.115234375,106.55466811438336L87.56197916666666,111.79244941005884L88.00872395833333,93.71153078015695L88.45546875000001,86.91371334731393L88.90221354166667,98.03291960116837L89.34895833333333,93.54088948700796L89.795703125,89.19054558378656L90.24244791666666,105.91307016097643L90.68919270833332,97.30749876104404L91.13593750000001,104.4979776701216L91.58268229166667,103.70043402243597L92.02942708333333,84.45328420000638L92.47617187499999,99.11029736593152L92.92291666666667,87.42404703028781L93.36966145833333,101.54138720848646L93.81640625,93.11017632430432L94.26315104166667,77.97924776153242L94.70989583333333,85.20812357341225L95.156640625,85.2708918005904L95.60338541666667,98.65349151902569L96.05013020833333,105.70758191799301L96.496875,94.34145439896092L96.94361979166668,75.85610530894678L97.39036458333334,84.51876207771005L97.837109375,106.39873207937758L98.28385416666666,114.15141546652636L98.73059895833333,120.38295365311076L99.17734375,108.97080276787882L99.62408854166667,114.2976766999129L100.07083333333334,124.01494476920475L100.517578125,124.1396282586115L100.96432291666666,119.2989696459295L101.41106770833333,111.87901634931315L101.8578125,110.2450847585403L102.30455729166667,107.95297441674057L102.75130208333334,116.24391901748865L103.198046875,112.04127808854382L103.64479166666666,96.22032125370036L104.09153645833332,107.37929797407696L104.53828125,113.37941357092629L104.98502604166667,118.84897562241676L105.43177083333333,110.57082103064786L105.878515625,113.88224530712172L106.32526041666667,117.92008171972873L106.77200520833333,115.20144128499773L107.21875,119.55910656109822L107.66549479166667,103.409083908151L108.11223958333333,120.98789952662072L108.55898437500001,122.14010406956417L109.00572916666667,114.71268843936855L109.45247395833333,114.53742605101371L109.89921874999999,103.13853946716371L110.34596354166668,109.44428332301628L110.79270833333334,113.00506902184225L111.239453125,113.28698801772568L111.68619791666667,112.86690149770243L112.13294270833333,101.21051304379739L112.57968749999999,113.55679830379704L113.02643229166667,118.76259281913889L113.47317708333334,116.51916297754643L113.919921875,113.91667896037265L114.36666666666667,111.81404914247697L114.81341145833333,118.43803733460729L115.26015625,129.1869735027437L115.70690104166665,119.41048749336291L116.15364583333334,109.81776220827513L116.600390625,114.26536034428062L117.04713541666666,122.42914042077976L117.49388020833334,121.57928885504748L117.940625,114.14357132279689L118.38736979166666,116.18989797408037L118.83411458333335,108.81347955666952L119.280859375,115.80565849728625L119.72760416666667,127.4559232005529L120.17434895833333,111.32275932430993L120.62109375,113.22795058998058L121.06783854166666,107.61867714298775L121.51458333333333,104.0130329349383L121.96132812500001,114.08644443645362L122.40807291666667,113.71565348659706L122.85481770833333,120.60283403142056L123.3015625,126.45540498873396L123.74830729166666,111.62007305242196L124.19505208333332,109.69020862438097L124.64179687500001,103.08335699473511L125.08854166666667,107.82503316087158L125.53528645833333,111.79214880472364L125.98203124999999,118.93090976133422L126.42877604166667,121.00342598308175L126.87552083333333,114.8050100522906L127.322265625,118.38819906925274L127.76901041666667,126.9590333770439L128.21575520833332,126.18945741533138L128.6625,118.25785499088758L129.10924479166667,117.95189003402575L129.55598958333334,116.36429972908735L130.002734375,128.86489398700556L130.44947916666666,121.60664236309754L130.89622395833334,130.13642621711648L131.34296875,129.58693973499717L131.78971354166666,115.91238339329851L132.23645833333333,119.09618507430555L132.683203125,117.09377937732046L133.12994791666665,126.95497167077767L133.57669270833333,134.0832395990535L134.0234375,130.87838841534904L134.47018229166667,126.41876804429279L134.91692708333332,119.82683719969764L135.363671875,128.03287621982895L135.81041666666667,111.18957649422127L136.25716145833331,120.3266260148595L136.70390625,115.22130429602001L137.1506510416667,115.27764490919746L137.59739583333334,122.97591327128184L138.044140625,121.47302973404317L138.49088541666669,121.74236405626354L138.93763020833333,121.2135472243968L139.384375,114.68455755280024L139.83111979166665,121.1397416961368L140.27786458333333,129.75221943960372L140.724609375,130.7785586509724L141.17135416666665,130.50818909206075L141.61809895833332,139.15183105142492L142.06484375,123.16846411487586L142.51158854166667,130.3595944755036L142.95833333333334,123.66620936740718L143.40507812500002,119.74126335720695L143.85182291666666,119.84185416218652L144.29856770833334,127.79539232356285L144.7453125,123.10280504168828L145.19205729166666,110.06800491146574L145.63880208333333,120.80547933299736L146.085546875,127.64273862064609L146.53229166666665,129.60324548549437L146.97903645833333,111.27369761766998L147.42578125,113.85120986663324L147.87252604166665,125.99269682190271L148.31927083333335,127.15865768532102L148.76601562500002,118.46846035228079L149.21276041666667,120.28938683117786L149.65950520833334,123.74921902401823L150.10625000000002,131.424504218979L150.55299479166666,130.06239100333326L150.99973958333334,129.5339946683965L151.44648437499998,134.40871386909453L151.89322916666666,126.88724436815416L152.33997395833333,131.73060663018128L152.78671874999998,115.53933839159039L153.23346354166665,111.27870870488616L153.68020833333335,120.80221172648945L154.126953125,122.96203985824425L154.57369791666667,131.24806969228476L155.02044270833335,136.0860523806344L155.4671875,130.24000836171692L155.91393229166667,135.6383054117386L156.36067708333334,137.74377967368616L156.807421875,136.7859968456147L157.25416666666666,131.39063360711498L157.70091145833334,135.3255317051986L158.14765624999998,136.35725889009547L158.59440104166666,132.0255222843048L159.04114583333333,118.26609865419174L159.487890625,127.61934254143084L159.93463541666668,123.77841869717723L160.38138020833335,134.0790955646389L160.828125,137.55575640125213L161.27486979166667,136.16890621096138L161.72161458333335,133.53882296248605L162.168359375,133.88854738582677L162.61510416666667,132.44716690648931L163.06184895833331,139.3361613004656L163.50859375,127.85620135199896L163.95533854166666,137.97699982602518L164.4020833333333,124.46953220013617L164.848828125,132.0844239431523L165.29557291666669,134.0335870857506L165.74231770833333,132.32257406673736L166.1890625,138.63863299509663L166.63580729166668,135.38829613351203L167.08255208333333,131.68415523597173L167.529296875,134.5768992772505L167.97604166666667,128.16251214406088L168.42278645833332,143.02778844571824L168.86953125,135.34577389408452L169.31627604166667,140.52614888675774L169.76302083333331,142.20161134351676L170.209765625,134.22967358168864L170.6565104166667,137.39151679120604L171.10325520833334,146.5077822658493L171.55,141.47580975393714L171.99674479166669,146.0379153051717L172.44348958333333,138.07519274162254L172.890234375,140.32122924017744L173.33697916666665,144.4986524034447L173.78372395833333,142.82517314898953L174.23046875,142.0256577185218L174.67721354166665,130.1251059291887L175.12395833333332,135.5195366772706L175.570703125,130.8440142147088L176.01744791666667,128.1703841951532L176.46419270833334,134.50205271264352L176.91093750000002,134.9596771906857L177.35768229166666,137.0906457593305L177.80442708333334,142.3849753336088L178.251171875,143.91048982011043L178.69791666666666,141.31780106421732L179.14466145833333,141.35914465977962L179.59140625,145.35939337022543L180.03815104166665,153.69908037092569L180.48489583333333,149.3494299782239L180.931640625,151.18735163841544L181.37838541666665,149.59313294441748L181.82513020833335,151.82219769286226L182.27187500000002,149.06528804627237L182.71861979166667,146.83258144270232L183.16536458333334,145.4798826463219L183.61210937500002,150.72284913420222L184.05885416666666,146.19494335432213L184.50559895833334,147.34201840995277L184.95234374999998,134.3412189054618L185.39908854166666,135.96584124158417L185.84583333333333,147.1279941443403L186.29257812499998,150.91155200265644L186.73932291666665,149.643127773941L187.18606770833335,152.185407448473L187.6328125,141.58730364633075L188.07955729166667,145.96215855734846L188.52630208333335,147.70031337154472L188.973046875,147.9406205200814L189.41979166666667,146.915493106952L189.86653645833334,143.2729871054789L190.31328125,145.4869698106338L190.76002604166666,143.97174243607296L191.20677083333334,155.08788448613333L191.65351562499998,144.28206109537643L192.10026041666666,141.59571903557864L192.54700520833333,140.6728997787151L192.99375,139.02101326239892L193.44049479166668,146.95674181243544L193.88723958333335,150.60242059115302L194.333984375,144.69961052814455L194.78072916666667,143.53421387156175L195.22747395833335,145.63818149506156L195.67421875,142.49338623563276L196.12096354166667,153.00163656336508L196.56770833333331,147.30011969397657L197.014453125,147.2021548365962L197.46119791666666,137.7423662975134L197.9079427083333,142.49343970028767L198.3546875,153.26927954429405L198.80143229166669,148.13773157283077L199.24817708333333,154.68365391245132L199.694921875,146.38398463382347L200.14166666666668,147.43685835458706L200.58841145833333,150.2970301923083L201.03515625,145.27855544407907L201.48190104166667,143.8929460722301L201.92864583333332,145.46002727453833L202.375390625,147.86030794422962L202.82213541666667,149.8273684283021L203.26888020833331,150.61783415132842L203.715625,147.18141699736495L204.1623697916667,143.88105405079068L204.60911458333334,145.66724213620432L205.055859375,149.0089792708183L205.50260416666669,139.51298686372078L205.94934895833333,146.41705237007966L206.39609375,139.2430847709532L206.84283854166665,141.72753315338605L207.28958333333333,151.01914749733982L207.736328125,151.8226695857894L208.18307291666665,152.76595547647352L208.62981770833332,156.43304607129195L209.0765625,155.0633239981354L209.52330729166667,151.99796381053613L209.97005208333334,139.11791696387536L210.41679687500002,146.19527439400179L210.86354166666666,147.70230847075356L211.31028645833334,143.94071689314328L211.75703125,152.0121856525451L212.20377604166666,142.49793982150342L212.65052083333333,137.65802599682812L213.097265625,139.94659478482248L213.54401041666665,142.16355320225145L213.99075520833333,147.76914390082243L214.4375,148.43470660540513L214.88424479166665,145.57100390771495L215.33098958333335,148.1870526742795L215.77773437500002,144.19805510634967L216.22447916666667,146.81388140035907L216.67122395833334,152.02401717546073L217.11796875000002,146.80848147623504L217.56471354166666,152.57215374663767L218.01145833333334,150.70999413864627L218.45820312499998,152.66932459880272L218.90494791666666,158.38804413557213L219.35169270833333,149.04572027947782L219.79843749999998,152.57302694824017L220.24518229166665,150.39565264927987L220.69192708333335,153.06785001604345L221.138671875,151.620149992127L221.58541666666667,153.9650187624805L222.03216145833335,156.85391961561788L222.47890625,153.14697457622324L222.92565104166667,158.28005010701264L223.37239583333334,160.70135345349937L223.819140625,161.82900056361746L224.26588541666666,157.59354888055296L224.71263020833334,154.9133292838602L225.15937499999998,153.80541483625151L225.60611979166666,158.75960915045746L226.05286458333333,156.04051228562534L226.499609375,155.84167044390057L226.94635416666668,153.64322452399782L227.39309895833335,153.82908166223774L227.83984375,158.80787382885225L228.28658854166667,159.3329669822392L228.73333333333335,157.57929541078755L229.180078125,156.61118813291628L229.62682291666667,155.67708025265273L230.07356770833331,160.5831226762175L230.5203125,153.85216084673422L230.96705729166666,155.85498198709627L231.4138020833333,157.40222745849823L231.860546875,153.96777254064273L232.30729166666669,152.90528513784477L232.75403645833333,143.12833730185463L233.20078125,148.15627969711952L233.64752604166668,152.9431482271765L234.09427083333333,146.64147243001545L234.541015625,156.17885804180847L234.98776041666667,149.10859872809866L235.43450520833332,154.65052286902883L235.88125,157.28947753950573L236.32799479166667,145.27994887486958L236.77473958333331,145.78877470710847L237.221484375,143.55214787559547L237.6682291666667,149.24213796713417L238.11497395833334,146.56254474273763L238.56171875,146.32823864301002L239.00846354166669,143.641440711498L239.45520833333333,146.05311641383588L239.901953125,147.83770336138804L240.34869791666665,155.2245199974036L240.79544270833333,153.1322185405396L241.2421875,155.3167898692398L241.68893229166665,156.39535785000322L242.13567708333332,147.80014216471196L242.582421875,148.74270465929578L243.02916666666667,151.312257222453L243.47591145833334,151.6188904769481L243.92265625000002,151.55855589454754L244.36940104166666,156.99515874185303L244.81614583333334,154.4095752721372L245.262890625,155.7904935443335L245.70963541666666,155.89163726624176" style="fill: none;" fill="none"></path></g><g><path stroke="rgb(0, 119, 187)" stroke-width="2px" d="M53.609375,-2.022758398974508L58.07682291666667,33.892569353927435L62.544270833333336,56.20493288474531L67.01171875,59.481618445994954L71.47916666666667,68.62784898114576L75.94661458333333,72.58853878152235L80.4140625,79.61616821367286L84.88151041666666,83.03807554641634L89.34895833333333,83.22136410163695L93.81640625,81.22510566541234L98.28385416666666,86.09155859261789L102.75130208333334,88.08576794078724L107.21875,74.42095921256933L111.68619791666667,78.24920323901455L116.15364583333334,77.9539549208525L120.62109375,77.14598883965566L125.08854166666667,82.45283361352877L129.55598958333334,85.91230472216628L134.0234375,91.45887236064L138.49088541666669,87.34418066247125L142.95833333333334,91.14265599022175L147.42578125,89.24819735812412L151.89322916666666,91.52171732673565L156.36067708333334,92.98385309116802L160.828125,93.43787229981704L165.29557291666669,90.66616109064155L169.76302083333331,95.70881022767223L174.23046875,96.90186553823196L178.69791666666666,97.95847402053118L183.16536458333334,97.86532198263488L187.6328125,98.79947361296283L192.10026041666666,95.77885547983915L196.56770833333331,98.48165430668197L201.03515625,100.89036045618519L205.50260416666669,101.41744449143651L209.97005208333334,101.86793435307823L214.4375,103.77963907622666L218.90494791666666,103.25123687334262L223.37239583333334,102.91838010938771L227.83984375,102.94057138004707L232.30729166666669,102.90993091389568L236.77473958333331,102.80090276228982L241.2421875,102.91728193440507L245.70963541666666,102.89305599042663" style="fill: none;" fill="none"></path></g></g></g></g><g opacity="0.2"><g><g><g><path stroke="rgb(255, 112, 67)" stroke-width="2px" d="M25.017708333333335,-52.9347043633461L25.464453125,15.602555280381992L25.911197916666666,-18.207676080140185L27.251432291666667,-15.434291059320634L27.698177083333334,32.46743701262909L28.144921874999998,12.288205886429017L28.59166666666667,40.939908019521035L29.038411458333336,43.72331556135959L29.48515625,5.632688462734222L29.931901041666666,47.828988546674914L30.378645833333334,-96.72468119859695L30.825390625,55.58661163395102L31.272135416666668,-62.03078957579352L31.71888020833333,44.96188815886325L32.165625,12.976642784747217L32.612369791666666,0.26011367277666286L33.05911458333333,20.38048047098248L33.505859375,36.85098319432954L33.95260416666667,49.82725864648819L34.399348958333334,-6.303103045983756L34.84609375,-33.27910200574182L35.29283854166666,29.08203082193028L35.739583333333336,76.03359752622518L36.186328125,104.87470852244984L36.63307291666666,53.45678995143283L37.07981770833334,22.172485649585724L37.526562500000004,69.87220477516001L37.973307291666664,84.36260022087532L38.42005208333334,52.79935573176905L38.866796875,85.92346400564368L39.313541666666666,36.87452892552722L39.76028645833333,67.57757496291941L40.20703125,88.6774513721466L40.65377604166667,69.33511273969303L41.10052083333333,95.25467084754597L41.547265625,86.1904634860429L41.99401041666667,8.393305559049955L42.44075520833333,120.92152595384553L42.8875,57.38896302743393L43.33424479166666,119.61509753221816L43.78098958333333,87.06154764240439L44.227734375000004,41.576661798087045L44.674479166666664,91.3333475102078L45.12122395833333,49.25248624790799L45.567968750000006,69.47914451902564L46.014713541666666,83.6236550916325L46.46145833333333,72.63227039304647L46.908203125,96.74047362262553L47.35494791666667,68.716389908032L47.801692708333334,100.12571197206324L48.2484375,110.617625054988L48.69518229166667,102.82624189691111L49.14192708333333,29.121809200807057L49.588671875,77.41879145394672L50.03541666666667,88.73066904057156L50.48216145833333,109.74426904727112L50.92890625,40.83534291386604L51.37565104166667,98.3985174975612L51.82239583333333,47.36981082233517L52.269140625,70.5475380664522L52.715885416666666,75.45924473079769L53.16263020833333,51.6871436265382L53.609375,95.98168725859037L54.05611979166667,82.81361719965935L54.502864583333334,88.7995558895848L54.949609374999994,75.83018590645358L55.39635416666667,48.96043046496133L55.843098958333336,79.86628868904981L56.289843749999996,88.76856519959189L56.73658854166667,65.64337227019398L57.18333333333334,20.68997975642032L57.630078125,86.93186629089443L58.07682291666667,101.40343953804538L58.52356770833333,79.84093266996472L58.9703125,102.62345368753782L59.41705729166667,61.158569853414186L59.86380208333333,93.65597084706481L60.310546875,98.85150907256387L60.75729166666667,114.05473234843126L61.204036458333334,105.17946029793134L61.65078125,81.37154906175356L62.09752604166666,60.45209001952953L62.544270833333336,57.75682311708278L62.991015624999996,103.24247623573652L63.43776041666666,105.36285085298799L63.88450520833334,95.28724404085766L64.33125,99.01865499127994L64.77799479166667,64.5464217310602L65.22473958333333,86.7736759023233L65.671484375,66.42612396857957L66.11822916666667,85.79070156812668L66.56497395833333,91.93413530425593L67.01171875,77.81682700460608L67.45846354166666,66.24366852912037L67.90520833333333,68.19889933412726L68.351953125,91.81183896823362L68.79869791666667,106.97156138582662L69.24544270833334,104.45514133572578L69.6921875,106.59424224224958L70.13893229166666,66.85636106404392L70.58567708333332,68.0320051773028L71.032421875,124.50409767167136L71.47916666666667,136.27624395083296L71.92591145833333,131.2955545281822L72.37265625,71.83636713298885L72.81940104166667,107.24222939664668L73.26614583333333,98.75715830651197L73.712890625,85.51359564607795L74.15963541666667,65.11410883069038L74.60638020833333,78.65018284320831L75.05312500000001,91.7174042815512L75.49986979166667,123.48673985627565L75.94661458333333,115.97122778811239L76.39335937499999,39.05297661911357L76.84010416666668,95.50685234232381L77.28684895833334,75.31418192657559L77.73359375,101.4405204680833L78.18033854166667,104.81580822847106L78.62708333333333,57.33989343589003L79.07382812499999,82.01364978335123L79.52057291666667,109.82909482175654L79.96731770833334,112.52795232832432L80.4140625,90.76615194569936L80.86080729166667,136.15668102963403L81.30755208333333,105.33090107007459L81.754296875,55.527603442018695L82.20104166666665,131.1467932218855L82.64778645833334,97.22232190587305L83.09453125,109.60452920875765L83.54127604166666,120.7833026810126L83.98802083333334,95.33766835115172L84.434765625,113.19549298963763L84.88151041666666,66.11751184409316L85.32825520833335,111.95960585231131L85.775,110.96472078290853L86.22174479166667,119.63845743916251L86.66848958333333,106.4440003362569L87.115234375,103.2050476345149L87.56197916666666,119.64912135357207L88.00872395833333,66.5901528353041L88.45546875000001,76.71698719804938L88.90221354166667,114.71172898195006L89.34895833333333,86.80284431576729L89.795703125,82.6650297289545L90.24244791666666,130.99685702676123L90.68919270833332,84.39914166114549L91.13593750000001,115.28369603373788L91.58268229166667,102.50411855090748L92.02942708333333,55.582559466362L92.47617187499999,121.0958171148192L92.92291666666667,69.89467152682218L93.36966145833333,122.71739747578448L93.81640625,80.46335999803111L94.26315104166667,55.282854917374536L94.70989583333333,96.05143729123203L95.156640625,85.3650441413576L95.60338541666667,118.72739109667866L96.05013020833333,116.28871751644395L96.496875,77.29226312041283L96.94361979166668,48.128081673925585L97.39036458333334,97.51274723085491L97.837109375,139.21868708187884L98.28385416666666,125.78044054724954L98.73059895833333,129.7302609329874L99.17734375,91.85257644003089L99.62408854166667,122.28798759796403L100.07083333333334,138.5908468731425L100.517578125,124.32665349272165L100.96432291666666,112.03798172690652L101.41106770833333,100.7490864043886L101.8578125,107.79418737238105L102.30455729166667,104.51480890404096L102.75130208333334,128.68033591861075L103.198046875,105.73731669512662L103.64479166666666,72.4888860014352L104.09153645833332,124.11776305464181L104.53828125,122.37958696620032L104.98502604166667,127.0533186996525L105.43177083333333,98.15358914299443L105.878515625,118.84938172183253L106.32526041666667,123.97683633863926L106.77200520833333,111.12348063290119L107.21875,126.09560447524896L107.66549479166667,79.18404992873019L108.11223958333333,147.35612295432523L108.55898437500001,123.86841088397935L109.00572916666667,103.57156499407508L109.45247395833333,114.27453246848151L109.89921874999999,86.0402095913887L110.34596354166668,118.90289910679515L110.79270833333334,118.3462475700812L111.239453125,113.70986651155083L111.68619791666667,112.23677171766758L112.13294270833333,83.72593036293983L112.57968749999999,132.07622619379651L113.02643229166667,126.57128459215164L113.47317708333334,113.15401821515776L113.919921875,110.01295293461195L114.36666666666667,108.66010441563346L114.81341145833333,128.37401962280273L115.26015625,145.31037775494835L115.70690104166665,104.74575847929175L116.15364583333334,95.42867428064346L116.600390625,120.93675754828885L117.04713541666666,134.67481053552845L117.49388020833334,120.30451150644909L117.940625,102.98999502442099L118.38736979166666,119.2593879510056L118.83411458333335,97.74885193055327L119.280859375,126.29392690821126L119.72760416666667,144.93132025545293L120.17434895833333,87.12301350994545L120.62109375,116.08573748848654L121.06783854166666,99.20476697249845L121.51458333333333,98.60456662286411L121.96132812500001,129.1965616887266L122.40807291666667,113.15946706181224L122.85481770833333,130.9336048486558L123.3015625,135.23426142470404L123.74830729166666,89.36707514795391L124.19505208333332,106.79541198231958L124.64179687500001,93.17307955026627L125.08854166666667,114.93754741007632L125.53528645833333,117.74282227050176L125.98203124999999,129.63905119625005L126.42877604166667,124.11220031570306L126.87552083333333,105.50738615610383L127.322265625,123.76298259469597L127.76901041666667,139.81528483873063L128.21575520833332,125.03509347276255L128.6625,106.36045135422185L129.10924479166667,117.49294259873304L129.55598958333334,113.9829142716798L130.002734375,147.6157853738828L130.44947916666666,110.71926492723553L130.89622395833334,142.93110199814492L131.34296875,128.7627100118182L131.78971354166666,95.40054888075049L132.23645833333333,123.8718875958161L132.683203125,114.09017083184287L133.12994791666665,141.74676011096346L133.57669270833333,144.7756414914673L134.0234375,126.07111163979228L134.47018229166667,119.72933748770843L134.91692708333332,109.9389409328049L135.363671875,140.34193475002593L135.81041666666667,85.92462690580975L136.25716145833331,134.03220029581678L136.70390625,107.56332171776079L137.1506510416667,115.36215582896362L137.59739583333334,134.5233158144084L138.044140625,119.21870442818513L138.49088541666669,122.14636553959414L138.93763020833333,120.42032197659667L139.384375,104.89107304540548L139.83111979166665,130.82251791114157L140.27786458333333,142.67093605480412L140.724609375,132.31806746802548L141.17135416666665,130.10263475369322L141.61809895833332,152.11729399047115L142.06484375,99.19341371005233L142.51158854166667,141.14629001644525L142.95833333333334,113.62613170526244L143.40507812500002,113.85384434190664L143.85182291666666,119.99274036965586L144.29856770833334,139.72569956562737L144.7453125,116.06392411887646L145.19205729166666,90.51580471613191L145.63880208333333,136.91169096529484L146.085546875,137.89862755211917L146.53229166666665,132.5440057827668L146.97903645833333,83.7793758159334L147.42578125,117.71747824007815L147.87252604166665,144.20492725480688L148.31927083333335,128.90759898044845L148.76601562500002,105.43316435272044L149.21276041666667,123.02077654952353L149.65950520833334,128.9389673132788L150.10625000000002,142.93743201142007L150.55299479166666,128.01922117986462L150.99973958333334,128.74140016599134L151.44648437499998,141.72079267014158L151.89322916666666,115.6050401167436L152.33997395833333,138.99565002322197L152.78671874999998,91.25243603370406L153.23346354166665,104.88776417482983L153.68020833333335,135.08746625889432L154.126953125,126.20178205587648L154.57369791666667,143.67711444334552L155.02044270833335,143.34302641315892L155.4671875,121.47094233334064L155.91393229166667,143.73575098677114L156.36067708333334,140.90199106660756L156.807421875,135.3493226035075L157.25416666666666,123.29758874936536L157.70091145833334,141.22787885232404L158.14765624999998,137.90484966744077L158.59440104166666,125.52791737561877L159.04114583333333,97.6269632090222L159.487890625,141.64920837228948L159.93463541666668,118.0170329307968L160.38138020833335,149.53011086583138L160.828125,142.77074765617198L161.27486979166667,134.0886309255253L161.72161458333335,129.593698089773L162.168359375,134.41313402083787L162.61510416666667,130.2850961874832L163.06184895833331,149.66965289143L163.50859375,110.63626142929903L163.95533854166666,153.15819753706455L164.4020833333333,104.20833076130262L164.848828125,143.50676155767658L165.29557291666669,136.95733179964802L165.74231770833333,129.75605453821748L166.1890625,148.1127213876356L166.63580729166668,130.51279084113511L167.08255208333333,126.12794388966128L167.529296875,138.91601533916864L167.97604166666667,118.54093144427648L168.42278645833332,165.32570289820433L168.86953125,123.82275206663392L169.31627604166667,148.29671137576753L169.76302083333331,144.71480502865532L170.209765625,122.27176693894647L170.6565104166667,142.1342816054821L171.10325520833334,160.18218047781423L171.55,133.9278509860689L171.99674479166669,152.88107363202354L172.44348958333333,126.13110889629885L172.890234375,143.6902839880098L173.33697916666665,150.7647871483456L173.78372395833333,140.31495426730677L174.23046875,140.82638457282022L174.67721354166665,112.27427824518897L175.12395833333332,143.61118279939348L175.570703125,123.83073052086614L176.01744791666667,124.1599391658198L176.46419270833334,143.99955548887903L176.91093750000002,135.646113907749L177.35768229166666,140.28709861229765L177.80442708333334,150.32646969502622L178.251171875,146.19876154986295L178.69791666666666,137.4287679303776L179.14466145833333,141.42116005312312L179.59140625,151.3597664358941L180.03815104166665,166.20861087197608L180.48489583333333,142.82495438917115L180.931640625,153.94423412870276L181.37838541666665,147.20180490342054L181.82513020833335,155.16579481552947L182.27187500000002,144.9299235763875L182.71861979166667,143.4835215373473L183.16536458333334,143.45083445175126L183.61210937500002,158.5872988660227L184.05885416666666,139.403084684502L184.50559895833334,149.06263099339876L184.95234374999998,114.84001964872535L185.39908854166666,138.40277474576777L185.84583333333333,163.87122349847448L186.29257812499998,156.58688879013062L186.73932291666665,147.7404914308678L187.18606770833335,155.99882696027106L187.6328125,125.6901479431174L188.07955729166667,152.52444092387503L188.52630208333335,150.30754559283906L188.973046875,148.30108124288645L189.41979166666667,145.37780198725787L189.86653645833334,137.80922810326922L190.31328125,148.80794386836615L190.76002604166666,141.6989013742317L191.20677083333334,171.76209756122395L191.65351562499998,128.07332600924104L192.10026041666666,137.56620594588193L192.54700520833333,139.28867089341986L192.99375,136.54318348792467L193.44049479166668,158.86033463749018L193.88723958333335,156.0709387592294L194.333984375,135.8453954336318L194.78072916666667,141.78611888668755L195.22747395833335,148.7941329303113L195.67421875,137.77619334648955L196.12096354166667,168.76401205496356L196.56770833333331,138.7478443898938L197.014453125,147.05520755052567L197.46119791666666,123.55268348888919L197.9079427083333,149.62004980444908L198.3546875,169.4330393103036L198.80143229166669,140.44040961563587L199.24817708333333,164.50253742188215L199.694921875,133.9344807158817L200.14166666666668,149.0161689357324L200.58841145833333,154.58728794889018L201.03515625,137.7508433217352L201.48190104166667,141.81453201445666L201.92864583333332,147.81064907800067L202.375390625,151.46072894876653L202.82213541666667,152.7779591544108L203.26888020833331,151.80353273586795L203.715625,142.02679126641968L204.1623697916667,138.93050963092935L204.60911458333334,148.34652426432478L205.055859375,154.02158497273922L205.50260416666669,125.26899825307457L205.94934895833333,156.77315062961796L206.39609375,128.48213337226346L206.84283854166665,145.45420572703534L207.28958333333333,164.95656901327047L207.736328125,153.0279527184638L208.18307291666665,154.18088431249964L208.62981770833332,161.9336819635196L209.0765625,153.00874088840052L209.52330729166667,147.39992352913725L209.97005208333334,119.79784669388424L210.41679687500002,156.81131053919142L210.86354166666666,149.96285958588123L211.31028645833334,138.29832952672785L211.75703125,164.11938879164782L212.20377604166666,128.22657107494095L212.65052083333333,130.39815525981516L213.097265625,143.37944796681404L213.54401041666665,145.4889908283949L213.99075520833333,156.17752994867888L214.4375,149.43305066227913L214.88424479166665,141.2754498611797L215.33098958333335,152.11112582412633L215.77773437500002,138.21455875445497L216.22447916666667,150.7376208413731L216.67122395833334,159.83922083811328L217.11796875000002,138.9851779273965L217.56471354166666,161.2176621522416L218.01145833333334,147.91675472665918L218.45820312499998,155.60832028903744L218.90494791666666,166.96612344072625L219.35169270833333,135.03223449533635L219.79843749999998,157.86398695138368L220.24518229166665,147.1295912008394L220.69192708333335,157.0761460661888L221.138671875,149.44859995625237L221.58541666666667,157.4823219180107L222.03216145833335,161.18727089532396L222.47890625,147.5865570171313L222.92565104166667,165.97966340319678L223.37239583333334,164.3333084732294L223.819140625,163.5204712287946L224.26588541666666,151.24037135595626L224.71263020833334,150.8929998888211L225.15937499999998,152.14354316483843L225.60611979166666,166.1909006217664L226.05286458333333,151.96186698837712L226.499609375,155.54340768131343L226.94635416666668,150.3455556441437L227.39309895833335,154.1078673695976L227.83984375,166.27606207877398L228.28658854166667,160.12060671231964L228.73333333333335,154.94878805361012L229.180078125,155.15902721610937L229.62682291666667,154.27591843225738L230.07356770833331,167.94218631156465L230.5203125,143.75571810250932L230.96705729166666,158.85921369763938L231.4138020833333,159.72309566560116L231.860546875,148.81609016385946L232.30729166666669,151.3115540336479L232.75403645833333,128.46291554786941L233.20078125,155.69819329001686L233.64752604166668,160.12345102226192L234.09427083333333,137.1889587342739L234.541015625,170.48493645949796L234.98776041666667,138.50320975753394L235.43450520833332,162.9634090804241L235.88125,161.24790954522112L236.32799479166667,127.26565587791531L236.77473958333331,146.55201345546678L237.221484375,140.19720762832597L237.6682291666667,157.77712310444224L238.11497395833334,142.54315490614283L238.56171875,145.9767794934186L239.00846354166669,139.61124381422997L239.45520833333333,149.67062996734273L239.901953125,150.51458378271624L240.34869791666665,166.30474495142698L240.79544270833333,149.9937663552436L241.2421875,158.59364686229011L241.68893229166665,158.01320982114837L242.13567708333332,134.90731863677502L242.582421875,150.1565484011715L243.02916666666667,155.16658606718886L243.47591145833334,152.07884035869077L243.92265625000002,151.46805402094668L244.36940104166666,165.15006301281127L244.81614583333334,150.5312000675635L245.262890625,157.86187095262787L245.70963541666666,156.0433528491042" style="fill: none;" fill="none"></path></g><g><path stroke="rgb(0, 119, 187)" stroke-width="2px" d="M26.8046875,-1168.712069684809L31.272135416666668,33.3204902220856L35.739583333333336,39.523111980069764L40.20703125,71.34003654664214L44.674479166666664,49.38048918680712L49.14192708333333,57.60399166020481L53.609375,35.30397830226205L58.07682291666667,86.86070159619506L62.544270833333336,89.33619235591456L67.01171875,64.36692749099299L71.47916666666667,82.29742140119727L75.94661458333333,78.51664114269344L80.4140625,90.14384450424801L84.88151041666666,88.16691422191533L89.34895833333333,83.49616766517813L93.81640625,78.23156276074323L98.28385416666666,93.39000239155509L102.75130208333334,91.07677816531874L107.21875,53.92499513788658L111.68619791666667,83.99135932868178L116.15364583333334,77.51109215888111L120.62109375,75.93405566974121L125.08854166666667,90.41303790970281L129.55598958333334,91.10148679668254L134.0234375,99.77870016477324L138.49088541666669,81.17215364358644L142.95833333333334,96.84036315029319L147.42578125,86.40651115504178L151.89322916666666,94.93199602311309L156.36067708333334,95.17705625295639L160.828125,94.11890102245592L165.29557291666669,86.50859460776503L169.76302083333331,103.27278357202357L174.23046875,98.69144845279781L178.69791666666666,99.54338671673428L183.16536458333334,97.72559392723171L187.6328125,100.200701049783L192.10026041666666,91.24792829697783L196.56770833333331,102.53585253791377L201.03515625,104.50341967561029L205.50260416666669,102.20807054367933L209.97005208333334,102.54366914521566L214.4375,106.64719616012141L218.90494791666666,102.45863356915387L223.37239583333334,102.4190949635072L227.83984375,102.97385828603397L232.30729166666669,102.86397021467036L236.77473958333331,102.6373605348847L241.2421875,103.09185069257563L245.70963541666666,102.85671707445925" style="fill: none;" fill="none"></path></g></g></g></g></g></g><g transform="translate(61, 177)" clip-path="url(#clip_1)"><clipPath id="clip_1"><rect width="268" height="23"></rect></clipPath><g><g><line x1="0" y1="0" x2="0" y2="5" style="visibility: inherit;" fill="rgb(0, 0, 0)" stroke="rgb(204, 204, 204)" stroke-width="1px"></line><line x1="22.337239583333332" y1="0" x2="22.337239583333332" y2="5" style="visibility: inherit;" fill="rgb(0, 0, 0)" stroke="rgb(204, 204, 204)" stroke-width="1px"></line><line x1="44.674479166666664" y1="0" x2="44.674479166666664" y2="5" style="visibility: inherit;" fill="rgb(0, 0, 0)" stroke="rgb(204, 204, 204)" stroke-width="1px"></line><line x1="67.01171875" y1="0" x2="67.01171875" y2="5" style="visibility: inherit;" fill="rgb(0, 0, 0)" stroke="rgb(204, 204, 204)" stroke-width="1px"></line><line x1="89.34895833333333" y1="0" x2="89.34895833333333" y2="5" style="visibility: inherit;" fill="rgb(0, 0, 0)" stroke="rgb(204, 204, 204)" stroke-width="1px"></line><line x1="111.68619791666667" y1="0" x2="111.68619791666667" y2="5" style="visibility: inherit;" fill="rgb(0, 0, 0)" stroke="rgb(204, 204, 204)" stroke-width="1px"></line><line x1="134.0234375" y1="0" x2="134.0234375" y2="5" style="visibility: inherit;" fill="rgb(0, 0, 0)" stroke="rgb(204, 204, 204)" stroke-width="1px"></line><line x1="156.36067708333334" y1="0" x2="156.36067708333334" y2="5" style="visibility: inherit;" fill="rgb(0, 0, 0)" stroke="rgb(204, 204, 204)" stroke-width="1px"></line><line x1="178.69791666666666" y1="0" x2="178.69791666666666" y2="5" style="visibility: inherit;" fill="rgb(0, 0, 0)" stroke="rgb(204, 204, 204)" stroke-width="1px"></line><line x1="201.03515625" y1="0" x2="201.03515625" y2="5" style="visibility: inherit;" fill="rgb(0, 0, 0)" stroke="rgb(204, 204, 204)" stroke-width="1px"></line><line x1="223.37239583333334" y1="0" x2="223.37239583333334" y2="5" style="visibility: inherit;" fill="rgb(0, 0, 0)" stroke="rgb(204, 204, 204)" stroke-width="1px"></line><line x1="245.70963541666666" y1="0" x2="245.70963541666666" y2="5" style="visibility: inherit;" fill="rgb(0, 0, 0)" stroke="rgb(204, 204, 204)" stroke-width="1px"></line><line x1="268.046875" y1="0" x2="268.046875" y2="5" style="visibility: inherit;" fill="rgb(0, 0, 0)" stroke="rgb(204, 204, 204)" stroke-width="1px"></line></g><g transform="translate(0, 8)"><text x="0" y="0" dx="0em" dy="0.95em" style="text-anchor: middle; visibility: hidden; font-family: Roboto, sans-serif; font-size: 12px; font-weight: 200;" fill="rgb(33, 33, 33)" stroke="none" stroke-width="1px">-5k</text><text x="22.337239583333332" y="0" dx="0em" dy="0.95em" style="text-anchor: middle; visibility: inherit; font-family: Roboto, sans-serif; font-size: 12px; font-weight: 200;" fill="rgb(33, 33, 33)" stroke="none" stroke-width="1px">0</text><text x="44.674479166666664" y="0" dx="0em" dy="0.95em" style="text-anchor: middle; visibility: hidden; font-family: Roboto, sans-serif; font-size: 12px; font-weight: 200;" fill="rgb(33, 33, 33)" stroke="none" stroke-width="1px">5k</text><text x="67.01171875" y="0" dx="0em" dy="0.95em" style="text-anchor: middle; visibility: inherit; font-family: Roboto, sans-serif; font-size: 12px; font-weight: 200;" fill="rgb(33, 33, 33)" stroke="none" stroke-width="1px">10k</text><text x="89.34895833333333" y="0" dx="0em" dy="0.95em" style="text-anchor: middle; visibility: hidden; font-family: Roboto, sans-serif; font-size: 12px; font-weight: 200;" fill="rgb(33, 33, 33)" stroke="none" stroke-width="1px">15k</text><text x="111.68619791666667" y="0" dx="0em" dy="0.95em" style="text-anchor: middle; visibility: inherit; font-family: Roboto, sans-serif; font-size: 12px; font-weight: 200;" fill="rgb(33, 33, 33)" stroke="none" stroke-width="1px">20k</text><text x="134.0234375" y="0" dx="0em" dy="0.95em" style="text-anchor: middle; visibility: hidden; font-family: Roboto, sans-serif; font-size: 12px; font-weight: 200;" fill="rgb(33, 33, 33)" stroke="none" stroke-width="1px">25k</text><text x="156.36067708333334" y="0" dx="0em" dy="0.95em" style="text-anchor: middle; visibility: inherit; font-family: Roboto, sans-serif; font-size: 12px; font-weight: 200;" fill="rgb(33, 33, 33)" stroke="none" stroke-width="1px">30k</text><text x="178.69791666666666" y="0" dx="0em" dy="0.95em" style="text-anchor: middle; visibility: hidden; font-family: Roboto, sans-serif; font-size: 12px; font-weight: 200;" fill="rgb(33, 33, 33)" stroke="none" stroke-width="1px">35k</text><text x="201.03515625" y="0" dx="0em" dy="0.95em" style="text-anchor: middle; visibility: inherit; font-family: Roboto, sans-serif; font-size: 12px; font-weight: 200;" fill="rgb(33, 33, 33)" stroke="none" stroke-width="1px">40k</text><text x="223.37239583333334" y="0" dx="0em" dy="0.95em" style="text-anchor: middle; visibility: hidden; font-family: Roboto, sans-serif; font-size: 12px; font-weight: 200;" fill="rgb(33, 33, 33)" stroke="none" stroke-width="1px">45k</text><text x="245.70963541666666" y="0" dx="0em" dy="0.95em" style="text-anchor: middle; visibility: inherit; font-family: Roboto, sans-serif; font-size: 12px; font-weight: 200;" fill="rgb(33, 33, 33)" stroke="none" stroke-width="1px">50k</text><text x="268.046875" y="0" dx="0em" dy="0.95em" style="text-anchor: middle; visibility: hidden; font-family: Roboto, sans-serif; font-size: 12px; font-weight: 200;" fill="rgb(33, 33, 33)" stroke="none" stroke-width="1px">55k</text></g><line x1="0" y1="0" x2="268.046875" y2="0" fill="rgb(0, 0, 0)" stroke="rgb(204, 204, 204)" stroke-width="1px"></line></g></g></g></g></svg>